<svg width="500" height="500" viewBox="0 0 500 500" fill="none" xmlns="http://www.w3.org/2000/svg">
<rect width="500" height="500" rx="250" fill="black"/>
<path d="M346.628 206.576C341.945 186.101 332.056 167.043 317.042 152.246C303.811 139.205 286.962 129.891 268.652 126.442C249.921 122.914 230.929 126.042 213.641 133.834C194.563 142.432 177.865 156.595 166.61 174.263C155.192 192.186 149.846 213.551 152.47 234.718C155.134 256.207 165.536 277.159 179.27 293.713C192.477 309.632 210.263 322.4 230.584 327.222C240.648 329.61 251.086 329.949 261.286 328.248C271.632 326.521 281.428 322.51 290.744 317.788C307.957 309.062 323.703 296.818 334.783 280.877C346.566 263.924 351.664 243.349 349.984 222.829C349.764 220.15 349.437 217.479 349.025 214.823C348.569 211.881 347.338 209.339 346.064 206.662C345.948 206.418 345.572 206.547 345.572 206.795C345.571 209.706 345.39 212.501 345.824 215.385C346.24 218.149 346.536 220.931 346.719 223.721C347.07 229.038 346.995 234.385 346.438 239.686C345.432 249.261 342.73 258.685 338.482 267.326C330.229 284.114 316.688 297.628 301.034 307.638C284.436 318.252 265.299 326.398 245.271 325.527C225.334 324.66 206.737 315.32 192.236 301.931C176.873 287.746 165.61 269.174 159.44 249.237C153.246 229.22 154.547 207.635 162.807 188.38C170.774 169.804 184.761 153.81 201.827 143.036C217.873 132.905 236.97 126.626 256.067 127.356C273.785 128.033 291.059 134.47 305.37 144.847C321.456 156.511 333.441 173.207 340.432 191.729C342.313 196.715 343.832 201.825 345.044 207.013C345.285 208.042 346.864 207.606 346.628 206.576Z" fill="white"/>
<path d="M346.513 215.943C344.651 219.914 343.602 224.449 342.163 228.599C340.634 233.007 338.899 237.336 337.014 241.603C333.207 250.218 328.291 258.151 323.779 266.389C323.611 266.695 324.045 267.074 324.285 266.779C330.263 259.447 334.862 250.823 338.747 242.236C340.597 238.147 342.212 233.95 343.666 229.704C345.13 225.426 346.863 220.662 347.224 216.136C347.253 215.766 346.672 215.605 346.513 215.943Z" fill="white"/>
<path d="M341.987 218.754C340.968 220.391 340.377 222.323 339.585 224.083C338.729 225.984 337.844 227.874 336.935 229.75C335.156 233.419 333.249 237.026 331.261 240.586C327.244 247.781 322.811 254.755 318.946 262.033C318.757 262.389 319.25 262.662 319.478 262.344C324.35 255.554 328.72 248.343 332.792 241.049C334.779 237.49 336.685 233.885 338.459 230.215C339.315 228.445 340.128 226.659 340.898 224.851C341.67 223.038 342.663 221.132 343.032 219.194C343.15 218.572 342.343 218.182 341.987 218.754Z" fill="white"/>
<path d="M332.916 225.477C331.894 226.373 331.356 227.727 330.714 228.911C329.969 230.289 329.242 231.677 328.522 233.069C327.106 235.806 325.718 238.557 324.314 241.3C321.459 246.877 318.426 252.386 314.94 257.597C314.657 258.02 315.325 258.549 315.654 258.147C319.61 253.325 322.666 247.931 325.536 242.413C327.011 239.576 328.416 236.703 329.856 233.849C330.563 232.449 331.276 231.053 332.008 229.667C332.639 228.473 333.503 227.299 333.75 225.962C333.84 225.47 333.304 225.138 332.916 225.477Z" fill="white"/>
<path d="M325.057 231.383C322.869 234.639 321.452 238.593 319.681 242.095C317.846 245.726 315.873 249.276 313.891 252.828C309.905 259.969 305.54 266.864 301.008 273.668C300.817 273.955 301.27 274.314 301.492 274.041C306.679 267.673 311.283 260.812 315.442 253.734C317.5 250.231 319.373 246.609 321.18 242.971C322.927 239.452 325.124 235.635 326.022 231.789C326.16 231.197 325.39 230.887 325.057 231.383Z" fill="white"/>
<path d="M317.492 236.826C314.798 240.376 312.838 244.733 310.618 248.601C308.32 252.605 305.936 256.557 303.57 260.521C298.838 268.449 293.712 276.176 289.402 284.347C289.231 284.67 289.674 284.913 289.883 284.628C295.415 277.066 300.254 268.98 305.121 260.981C307.52 257.039 309.819 253.035 312.072 249.008C314.185 245.233 316.757 241.206 318.054 237.063C318.167 236.703 317.688 236.567 317.492 236.826Z" fill="white"/>
<path d="M308.791 241.688C307.144 243.835 306.178 246.713 304.942 249.121C303.645 251.647 302.271 254.131 300.887 256.609C298.127 261.55 295.136 266.359 292.207 271.201C291.936 271.65 292.591 271.993 292.891 271.6C296.409 266.988 299.493 262.079 302.328 257.022C303.717 254.544 304.995 252.004 306.22 249.442C307.335 247.109 308.884 244.471 309.299 241.902C309.351 241.582 308.985 241.434 308.791 241.688Z" fill="white"/>
<path d="M300.511 247.482C297.523 251.429 295.321 256.127 292.712 260.342C290.01 264.706 287.162 268.975 284.431 273.32C281.753 277.583 279.083 281.852 276.547 286.202C274.055 290.477 271.436 294.856 269.651 299.485C269.602 299.612 269.799 299.685 269.865 299.575C272.502 295.217 274.868 290.709 277.593 286.398C280.351 282.033 283.256 277.767 286.136 273.483C288.928 269.329 291.66 265.114 294.265 260.838C296.756 256.748 299.751 252.36 301.1 247.731C301.21 247.354 300.718 247.208 300.511 247.482Z" fill="white"/>
<path d="M290.993 253.58C288.873 254.466 287.56 257.289 286.379 259.155C283.955 262.988 281.804 267.01 279.483 270.908C274.236 279.718 268.783 288.342 263.184 296.929C262.987 297.231 263.455 297.604 263.691 297.32C269.984 289.724 275.455 281.274 280.53 272.83C282.922 268.849 285.253 264.836 287.539 260.795C288.815 258.538 290.722 256.512 291.463 254.049C291.538 253.795 291.268 253.466 290.993 253.58Z" fill="white"/>
<path d="M285.422 255.788C282.39 257.808 280.039 261.553 277.877 264.446C275.209 268.015 272.708 271.706 270.301 275.455C265.584 282.801 261.041 290.447 257.293 298.339C257.065 298.818 257.695 299.185 258.001 298.753C262.932 291.791 267.097 284.258 271.665 277.057C273.935 273.479 276.286 269.95 278.783 266.526C280.041 264.802 281.338 263.105 282.662 261.432C283.884 259.889 285.411 258.447 286.345 256.71C286.646 256.149 286.012 255.395 285.422 255.788Z" fill="white"/>
<path d="M274.694 261.784C271.472 264.971 269.07 269.037 266.658 272.844C264.197 276.73 261.894 280.714 259.424 284.595C258.902 285.415 260.175 286.133 260.715 285.35C263.265 281.652 265.608 277.836 267.971 274.019C270.399 270.097 273.188 266.408 275.592 262.477C275.933 261.92 275.154 261.33 274.694 261.784Z" fill="white"/>
<path d="M264.851 267.89C262.177 269.04 260.212 272.016 258.512 274.261C256.409 277.04 254.549 279.974 252.75 282.956C249.148 288.925 245.669 294.974 241.718 300.724C241.407 301.177 242.107 301.71 242.478 301.31C247.069 296.361 250.314 290.42 253.743 284.652C255.47 281.747 257.231 278.852 259.133 276.057C260.943 273.399 263.655 270.97 265.031 268.07C265.091 267.945 264.972 267.837 264.851 267.89Z" fill="white"/>
<path d="M254.541 272.171C251.827 274.336 250.164 277.833 248.425 280.772C246.498 284.032 244.597 287.288 242.384 290.367C241.749 291.251 243.188 292.047 243.827 291.211C246.123 288.202 248.199 285.022 250.145 281.777C251.904 278.842 254.095 275.769 255.006 272.442C255.086 272.152 254.746 272.007 254.541 272.171Z" fill="white"/>
<path d="M242.909 278.474C239.316 282.369 237.102 287.622 234.567 292.227C231.793 297.264 228.945 302.26 225.745 307.041C225.461 307.467 226.117 307.98 226.459 307.592C230.232 303.305 233.202 298.415 235.929 293.417C238.521 288.667 241.533 283.842 243.375 278.744C243.47 278.481 243.092 278.275 242.909 278.474Z" fill="white"/>
<path d="M232.614 283.691C229.503 286.335 227.649 290.444 225.691 293.954C223.616 297.674 221.593 301.427 219.454 305.111C219.165 305.608 219.893 306.013 220.213 305.555C222.662 302.056 224.84 298.399 227.068 294.759C229.185 291.3 231.894 287.92 233.349 284.12C233.52 283.67 232.913 283.437 232.614 283.691Z" fill="white"/>
<path d="M224.499 286.39C221.718 288.956 220.097 292.545 218.362 295.849C216.516 299.367 214.822 302.968 213.24 306.613C213.104 306.927 213.512 307.352 213.77 307.021C216.098 304.035 217.831 300.56 219.548 297.202C221.334 293.711 223.237 290.284 225.029 286.799C225.203 286.46 224.786 286.126 224.499 286.39Z" fill="white"/>
<path d="M215.92 290.006C213.893 291.973 212.633 294.592 211.39 297.087C210.054 299.77 208.699 302.454 207.438 305.17C207.292 305.486 207.672 305.839 207.944 305.561C211.965 301.45 212.727 294.936 216.521 290.607C216.88 290.199 216.317 289.621 215.92 290.006Z" fill="white"/>
<path d="M207.438 293.696C205.095 297.141 203.706 301.098 201.659 304.706C201.508 304.973 201.881 305.286 202.097 305.043C204.835 301.957 206.178 297.663 207.995 294.021C208.181 293.649 207.672 293.352 207.438 293.696Z" fill="white"/>
<path d="M346.814 227.287C346.393 236.781 342.039 245.668 337.103 253.603C334.63 257.578 331.895 261.377 329.092 265.123C326.439 268.67 323.45 272.164 321.32 276.061C321.123 276.422 321.595 276.804 321.896 276.505C325.087 273.336 327.789 269.531 330.454 265.919C333.422 261.896 336.279 257.777 338.833 253.477C343.568 245.506 347.113 236.692 346.872 227.287C346.871 227.249 346.815 227.249 346.814 227.287Z" fill="white"/>
<path d="M344.715 247.049C341.849 252.934 338.985 258.778 335.414 264.278C331.73 269.954 327.072 274.632 322.749 279.78C322.416 280.178 322.839 280.848 323.336 280.54C328.972 277.053 333.35 271.385 336.939 265.914C340.67 260.227 343.624 253.866 345.117 247.218C345.169 246.988 344.83 246.815 344.715 247.049Z" fill="white"/>
<path d="M335.907 274.521C329.397 280.916 321.514 285.414 313.68 289.964C313.227 290.228 313.624 290.841 314.08 290.647C322.106 287.236 332.3 283.214 336.505 274.983C336.698 274.605 336.226 274.208 335.907 274.521Z" fill="white"/>
<path d="M294.421 302.179C296.964 302.794 299.842 301.757 302.224 300.897C304.86 299.945 307.43 298.749 309.922 297.472C315.251 294.742 320.883 291.748 325.638 288.097C325.839 287.942 325.738 287.533 325.446 287.641C320.168 289.608 315.526 293.272 310.573 295.925C307.876 297.369 305.122 298.661 302.204 299.595C299.653 300.412 296.785 300.603 294.362 301.723C294.165 301.814 294.223 302.131 294.421 302.179Z" fill="white"/>
<path d="M284.793 310.297C290.831 309.909 297.22 307.313 302.605 304.673C305.551 303.229 308.441 301.674 311.287 300.045C312.687 299.243 314.083 298.434 315.482 297.632C316.842 296.852 318.467 296.156 319.513 294.967C319.809 294.631 319.515 294.192 319.099 294.257C316.357 294.683 313.492 296.985 311.093 298.331C308.338 299.876 305.595 301.447 302.796 302.912C299.858 304.451 296.914 306.053 293.83 307.281C290.864 308.462 287.828 309.217 284.761 310.067C284.638 310.101 284.658 310.306 284.793 310.297Z" fill="white"/>
<path d="M271.165 315.708C275.72 317.095 281.333 315.959 285.905 315.034C288.492 314.51 291.049 313.847 293.575 313.085C295.733 312.434 298.264 311.868 300.006 310.366C300.185 310.212 300.035 309.918 299.819 309.916C297.556 309.889 295.307 310.969 293.17 311.615C290.764 312.342 288.33 312.978 285.868 313.489C283.37 314.008 280.837 314.403 278.298 314.657C275.913 314.895 273.515 314.811 271.165 315.312C270.958 315.356 270.981 315.652 271.165 315.708Z" fill="white"/>
<path d="M261.941 319.989C264.227 321.708 268.123 321.788 270.874 321.828C273.509 321.866 277.611 321.958 279.71 320.124C279.955 319.91 279.744 319.539 279.461 319.523C278.22 319.454 276.978 319.898 275.756 320.106C274.04 320.399 272.294 320.497 270.554 320.471C267.755 320.429 264.775 319.505 262.008 319.743C261.871 319.755 261.836 319.909 261.941 319.989Z" fill="white"/>
<path d="M253.695 322.854C256.16 325.289 259.933 325.17 263.1 324.676C263.602 324.598 263.489 323.736 262.979 323.783C259.813 324.08 256.843 323.444 253.795 322.682C253.697 322.658 253.621 322.781 253.695 322.854Z" fill="white"/>
<path d="M186.444 153.349C172.069 167.427 166.038 188.773 165.166 208.358C165.145 208.832 165.869 208.826 165.899 208.358C166.527 198.452 168.352 188.568 171.806 179.245C175.312 169.78 180.641 161.544 186.513 153.402C186.543 153.361 186.478 153.315 186.444 153.349Z" fill="white"/>
<path d="M194.291 148.082C187.638 152.136 185.074 161.287 183.382 168.388C181.445 176.521 180.631 184.865 179.854 193.172C179.819 193.547 180.458 193.638 180.516 193.262C181.733 185.417 182.665 177.534 184.461 169.789C186.257 162.047 188.906 154.159 194.38 148.197C194.435 148.138 194.365 148.037 194.291 148.082Z" fill="white"/>
<path d="M206.277 138.38C203.927 139.309 202.559 141.569 201.401 143.705C199.794 146.671 198.644 149.885 197.649 153.1C195.727 159.315 194.645 165.74 193.341 172.101C193.217 172.706 194.098 172.962 194.274 172.358C195.941 166.621 197.104 160.752 198.757 155.007C199.669 151.834 200.695 148.665 202.131 145.686C203.322 143.215 204.931 141.109 206.619 138.969C206.808 138.73 206.645 138.235 206.277 138.38Z" fill="white"/>
<path d="M220.917 132.028C219.229 132.406 217.971 134.175 216.984 135.483C215.648 137.252 214.545 139.184 213.59 141.182C211.467 145.623 210.095 150.423 208.965 155.2C206.787 164.404 205.989 173.826 204.534 183.151C204.48 183.497 204.985 183.656 205.071 183.3C207.162 174.589 208.3 165.668 210.369 156.946C211.498 152.188 212.835 147.463 214.812 142.98C215.662 141.054 216.617 139.172 217.783 137.415C218.834 135.833 220.659 134.394 221.396 132.652C221.54 132.315 221.306 131.941 220.917 132.028Z" fill="white"/>
<path d="M231.502 128.869C229.032 129.113 227.313 133.089 226.42 135C224.678 138.726 223.523 142.707 222.502 146.681C220.565 154.214 219.498 161.887 218.104 169.526C218.031 169.93 218.601 170.099 218.726 169.697C220.884 162.797 222 155.55 223.728 148.535C224.682 144.664 225.766 140.802 227.238 137.092C227.855 135.538 228.56 134.001 229.46 132.589C230.151 131.504 231.286 130.628 231.869 129.508C232.004 129.249 231.844 128.835 231.502 128.869Z" fill="white"/>
<path d="M242.415 126.846C237.887 133.172 236.893 141.576 235.779 149.071C235.696 149.636 236.479 149.887 236.656 149.313C238.883 142.084 239.228 133.953 243.63 127.556C244.148 126.804 242.936 126.118 242.415 126.846Z" fill="white"/>
<path d="M251.4 126.821C252.996 132.335 254.134 137.882 254.76 143.591C255.365 149.106 255.372 154.65 255.569 160.187C255.594 160.903 256.569 160.863 256.654 160.187C258.029 149.181 256.567 136.845 252.446 126.533C252.194 125.902 251.201 126.133 251.4 126.821Z" fill="white"/>
<path d="M260.161 126.758C266.858 140.358 271.906 154.743 270.873 170.134C270.841 170.609 271.612 170.718 271.708 170.247C273.253 162.67 272.364 154.907 270.258 147.516C268.142 140.089 264.99 132.858 260.44 126.596C260.318 126.429 260.068 126.57 260.161 126.758Z" fill="white"/>
<path d="M269.855 127.835C271.576 132.372 273.85 136.682 275.576 141.229C277.367 145.948 278.858 150.776 280.068 155.675C282.468 165.396 283.781 175.343 284.501 185.32C284.539 185.847 285.287 185.85 285.322 185.32C285.986 175.289 284.569 165.182 282.082 155.47C280.802 150.472 279.232 145.543 277.338 140.744C275.558 136.233 273.574 131.385 270.605 127.519C270.352 127.188 269.674 127.356 269.855 127.835Z" fill="white"/>
<path d="M283.035 132.957C285.92 135.186 288.263 137.49 290.077 140.701C292.073 144.237 293.346 148.145 294.31 152.074C296.368 160.471 296.991 169.062 297.609 177.657C297.88 181.436 297.932 185.375 298.609 189.107C298.708 189.651 299.451 189.454 299.502 188.986C300.371 181.041 299.666 172.62 298.739 164.717C297.746 156.256 296.179 147.371 291.862 139.896C289.982 136.641 287.201 133.088 283.498 131.858C282.794 131.625 282.541 132.575 283.035 132.957Z" fill="white"/>
<path d="M298.355 140.338C298.933 142.022 300.556 143.528 301.588 144.95C302.954 146.833 304.186 148.811 305.327 150.837C307.969 155.527 310.246 160.45 312.156 165.481C314.001 170.342 315.582 175.327 316.72 180.403C317.233 182.693 317.679 185.011 318.006 187.335C318.285 189.314 318.242 191.448 318.689 193.386C318.873 194.183 320.028 194.124 320.244 193.386C320.802 191.479 320.55 189.138 320.363 187.178C320.131 184.757 319.732 182.365 319.203 179.991C318.008 174.634 316.321 169.393 314.259 164.308C312.23 159.305 309.907 154.416 307.02 149.847C305.737 147.817 304.357 145.847 302.851 143.977C301.744 142.602 300.318 140.654 298.571 140.121C298.448 140.084 298.311 140.211 298.355 140.338Z" fill="white"/>
<path d="M314.987 152.504C315.783 154.181 317.23 155.656 318.202 157.263C319.257 159.009 320.196 160.827 321.031 162.688C322.853 166.747 324.146 171.103 325.137 175.434C327.073 183.898 327.731 192.903 326.816 201.553C326.743 202.241 327.885 202.393 328.025 201.717C329.88 192.737 329.194 183.488 326.921 174.628C325.799 170.25 324.215 166.048 322.21 161.999C321.225 160.012 320.124 158.079 318.882 156.24C317.937 154.84 316.853 153.013 315.448 152.043C315.146 151.833 314.856 152.228 314.987 152.504Z" fill="white"/>
<path d="M162.33 186.83C160.609 188.837 159.99 191.644 159.536 194.188C158.943 197.514 158.769 200.906 158.74 204.279C158.683 211.067 159.394 217.813 159.579 224.591C159.586 224.836 159.955 224.837 159.961 224.591C160.092 218.207 159.514 211.829 159.499 205.446C159.491 202.016 159.608 198.561 160.141 195.167C160.593 192.288 161.557 189.66 162.477 186.916C162.504 186.834 162.387 186.764 162.33 186.83Z" fill="white"/>
<path d="M182.084 156.929C180.117 159.901 179.108 163.325 178.205 166.747C177.168 170.678 176.387 174.685 175.796 178.706C174.692 186.218 173.745 193.956 173.616 201.553C173.611 201.878 174.122 201.959 174.192 201.631C175.769 194.251 176.116 186.568 177.259 179.109C177.844 175.291 178.496 171.484 179.415 167.73C180.293 164.142 181.56 160.674 182.513 157.11C182.583 156.846 182.229 156.71 182.084 156.929Z" fill="white"/>
<path d="M195.584 145.867C194.263 148.373 193.615 151.216 192.895 153.941C192.106 156.925 191.396 159.93 190.827 162.963C189.731 168.813 188.974 174.69 188.363 180.609C188.34 180.837 188.727 180.891 188.766 180.663C189.762 174.862 190.821 169.057 192.07 163.305C192.699 160.41 193.327 157.514 194.057 154.643C194.775 151.821 195.81 149.029 196.254 146.149C196.313 145.771 195.795 145.468 195.584 145.867Z" fill="white"/>
<path d="M210.957 137.458C208.774 138.387 207.596 140.776 206.637 142.855C205.337 145.673 204.464 148.692 203.695 151.69C202.191 157.552 201.218 163.546 200.245 169.514C200.166 169.996 200.809 170.183 200.98 169.716C202.922 164.405 203.649 158.614 204.986 153.131C205.698 150.212 206.509 147.301 207.634 144.512C208.606 142.103 209.981 140.001 211.298 137.799C211.438 137.564 211.169 137.367 210.957 137.458Z" fill="white"/>
<path d="M225.046 131.215C222.426 133.597 221.198 137.24 220.112 140.525C218.841 144.368 218.078 148.34 217.056 152.25C216.95 152.655 217.543 152.81 217.678 152.421C218.901 148.894 219.912 145.3 221.006 141.732C222.113 138.125 223.688 134.844 225.438 131.517C225.57 131.265 225.258 131.023 225.046 131.215Z" fill="white"/>
<path d="M238.124 127.409C236.194 128.239 235.055 130.521 234.227 132.324C233.085 134.811 232.329 137.458 231.691 140.112C230.436 145.334 229.844 150.698 228.503 155.897C228.396 156.314 229.04 156.626 229.227 156.202C231.213 151.68 231.784 146.582 232.823 141.791C233.398 139.139 234.054 136.477 235.059 133.951C235.959 131.686 237.395 129.962 238.625 127.91C238.832 127.567 238.437 127.275 238.124 127.409Z" fill="white"/>
<path d="M247.456 126.679C247.281 136.699 246.938 146.552 245.901 156.524C245.869 156.83 246.335 156.868 246.419 156.594C249.369 147.03 248.211 136.529 248.013 126.679C248.006 126.321 247.462 126.32 247.456 126.679Z" fill="white"/>
<path d="M254.982 126.702C255.377 129.59 256.579 132.331 257.454 135.095C258.339 137.887 259.097 140.724 259.758 143.577C261.158 149.626 261.316 155.618 261.824 161.761C261.874 162.368 262.787 162.579 262.947 161.913C264.384 155.915 263.388 149.239 261.944 143.339C261.189 140.255 260.153 137.26 258.993 134.306C257.951 131.652 256.917 128.87 255.129 126.616C255.067 126.539 254.972 126.628 254.982 126.702Z" fill="white"/>
<path d="M264.647 127.417C266.798 131.558 269.108 135.61 271.006 139.879C272.935 144.218 274.19 148.79 276.037 153.148C276.259 153.671 277.143 153.402 277.103 152.859C276.766 148.295 274.738 143.757 272.813 139.659C270.734 135.234 268.37 130.868 265.382 126.988C265.055 126.565 264.387 126.917 264.647 127.417Z" fill="white"/>
<path d="M276.316 129.947C277.753 132.594 279.476 135.045 280.792 137.773C282.336 140.972 283.658 144.307 284.806 147.667C285.894 150.852 286.818 154.088 287.647 157.349C288.392 160.275 288.909 163.305 289.903 166.159C290.18 166.954 291.515 166.891 291.458 165.948C291.27 162.856 290.455 159.778 289.713 156.78C288.834 153.23 287.821 149.708 286.618 146.255C285.481 142.988 284.177 139.805 282.47 136.792C281.007 134.209 279.186 131.273 276.657 129.606C276.439 129.462 276.203 129.739 276.316 129.947Z" fill="white"/>
<path d="M292.244 135.92C298.638 140.738 301.786 149.513 304.238 156.819C306.727 164.231 308.726 171.996 310.027 179.713C310.132 180.333 311.146 180.186 311.122 179.564C310.797 171.233 308.337 162.928 305.442 155.161C303.864 150.93 302.071 146.726 299.649 142.902C297.85 140.061 295.632 136.947 292.496 135.49C292.201 135.353 291.989 135.728 292.244 135.92Z" fill="white"/>
<path d="M308.449 146.091C309.517 148.682 310.94 151.115 312.112 153.662C313.691 157.098 315.134 160.606 316.516 164.125C317.827 167.462 318.981 170.857 319.856 174.336C320.609 177.328 320.913 180.373 321.562 183.371C321.679 183.913 322.462 183.861 322.608 183.371C323.434 180.598 322.75 177.283 322.13 174.536C321.285 170.792 319.929 167.13 318.476 163.584C317.083 160.188 315.466 156.875 313.641 153.692C312.128 151.053 310.712 148.244 308.694 145.948C308.602 145.843 308.393 145.954 308.449 146.091Z" fill="white"/>
<path d="M325.419 163.229C325.786 163.68 326.086 164.812 326.339 165.383C326.865 166.571 327.332 167.775 327.748 169.007C328.861 172.297 329.799 175.649 330.663 179.012C332.147 184.786 333.088 190.713 334.739 196.437C334.886 196.951 335.588 196.814 335.631 196.317C335.849 193.787 335.259 191.124 334.725 188.664C333.91 184.908 332.956 181.177 331.921 177.477C330.962 174.049 329.945 170.622 328.595 167.325C327.907 165.646 327.278 163.699 325.548 163.009C325.411 162.954 325.346 163.14 325.419 163.229Z" fill="white"/>
<path d="M426.679 132.929C419.26 119.017 365.102 139.771 326.583 155.116C323.814 156.219 322.872 159.651 324.671 162.026V162.026C325.851 163.584 327.886 164.207 329.748 163.612C345.239 158.659 382.217 149.011 385.586 154.019C389.208 159.401 336.196 210.67 270.251 247.645C215.509 278.337 130.009 300.421 126.045 295.309C122.323 290.51 142.583 272.589 157.866 260.815C159.585 259.491 160.299 257.231 159.624 255.169V255.169C158.569 251.948 154.719 250.646 151.953 252.604C119.346 275.693 74.2734 311.97 81.1051 328.185C88.3283 345.343 194.959 305.317 275.098 262.189C392.848 198.82 434.456 147.517 426.679 132.929Z" fill="#222323"/>
<path d="M427.895 132.218C425.874 128.57 421.591 127.419 417.718 127.062C411.62 126.499 405.334 127.617 399.386 128.862C382.146 132.471 365.415 138.65 348.979 144.872C339.517 148.454 330.117 152.196 320.722 155.949C319.981 156.245 319.274 157.216 319.88 158.017C321.732 160.461 323.583 162.905 325.435 165.349C325.797 165.827 326.392 166.214 327.024 165.996C338.695 161.972 350.806 158.863 362.891 156.375C368.487 155.223 374.255 154.048 379.993 154.026C381.454 154.02 383.021 154.14 384.221 154.645C384.719 154.855 384.124 154.758 384.346 154.515C384.119 154.763 384.401 154.803 384.214 155.308C383.411 157.469 381.283 160.135 379.586 162.168C376.301 166.102 372.707 169.779 369.045 173.36C357.885 184.274 345.86 194.324 333.526 203.877C303.243 227.333 270.595 247.976 235.325 263.058C219.252 269.931 202.797 275.934 186.144 281.24C172.838 285.479 159.367 289.362 145.7 292.26C141.421 293.167 137.099 294.026 132.741 294.449C131.365 294.583 129.969 294.692 128.586 294.619C127.923 294.584 127.97 294.597 127.496 294.491C126.965 294.372 127.099 294.257 127.164 294.441C127.156 294.417 126.974 294.096 127.007 293.646C127.079 292.681 127.664 291.686 128.137 290.877C129.617 288.341 131.612 286.108 133.607 283.971C139.233 277.945 145.535 272.53 151.913 267.322C155.047 264.763 158.231 262.265 161.465 259.833C161.951 259.468 162.32 258.88 162.112 258.244C161.03 254.942 159.948 251.639 158.867 248.337C158.604 247.536 157.585 246.952 156.799 247.496C139 259.841 121.508 272.882 105.506 287.509C98.577 293.843 91.8166 300.525 86.2189 308.089C82.6821 312.868 78.6344 319.014 79.0264 325.256C79.6601 335.349 92.6053 334.006 99.6841 333.099C116.73 330.916 133.427 325.341 149.583 319.695C171.959 311.875 193.901 302.796 215.507 293.066C239.033 282.471 262.153 270.986 284.751 258.534C307.886 245.786 330.574 232.155 352.301 217.12C367.942 206.296 383.186 194.755 397.208 181.88C406.338 173.496 415.261 164.472 422.145 154.105C425.625 148.867 429.757 141.986 428.881 135.392C428.733 134.274 428.42 133.221 427.895 132.218C427.054 130.613 424.624 132.034 425.464 133.639C425.7 134.09 426.094 135.492 426.135 135.968C426.239 137.2 426.136 138.321 425.958 139.268C425.364 142.429 424.027 145.348 422.485 148.144C417.342 157.475 409.915 165.554 402.411 173.024C390.299 185.081 376.919 195.853 363.153 205.951C343.918 220.061 323.741 232.873 303.139 244.882C280.665 257.983 257.647 270.129 234.167 281.327C212.409 291.704 190.291 301.366 167.788 310.014C149.838 316.912 131.561 323.432 112.809 327.805C106.637 329.244 100.336 330.52 93.9879 330.797C90.6633 330.942 86.0198 331.037 83.4644 329.004C82.4957 328.233 81.9574 326.853 81.8405 325.256C81.6529 322.691 82.5012 320.097 83.5642 317.798C86.8645 310.661 92.3632 304.552 97.7617 298.94C112.379 283.743 129.319 270.706 146.346 258.347C149.995 255.699 153.672 253.089 157.374 250.514C157.737 250.261 157.676 249.706 157.265 249.539V249.539C156.826 249.36 156.378 249.777 156.526 250.228C157.406 252.916 158.287 255.603 159.167 258.291C159.245 258.53 159.58 258.542 159.675 258.309V258.309C159.778 258.054 159.481 257.826 159.263 257.992C152.519 263.092 145.942 268.433 139.681 274.117C134.587 278.743 128.705 283.827 125.406 289.987C124.075 292.472 123.29 296.393 126.848 297.227C129.723 297.902 133.034 297.279 135.898 296.882C148.069 295.191 160.074 291.9 171.862 288.512C188.67 283.681 205.262 278.057 221.553 271.698C238.452 265.1 255.122 257.73 270.961 248.86C289.783 238.319 307.877 226.464 325.228 213.652C339.258 203.293 352.893 192.324 365.676 180.452C370.257 176.197 374.748 171.825 378.94 167.184C381.473 164.379 384.118 161.437 385.98 158.124C387.039 156.24 388.003 153.736 385.759 152.287C382.476 150.168 376.924 151.274 373.352 151.733C359.727 153.485 346.222 157.136 333.093 161.101C331.04 161.721 328.993 162.359 326.962 163.047C326.723 163.127 326.714 163.46 326.947 163.554V163.554C327.203 163.659 327.434 163.358 327.267 163.138C325.807 161.211 324.347 159.284 322.887 157.357C322.633 157.021 322.11 157.09 321.951 157.48V157.48C321.77 157.923 322.211 158.367 322.656 158.189C338.554 151.838 354.479 145.52 370.695 140.016C378.55 137.349 386.48 134.855 394.535 132.86C400.838 131.3 407.319 129.906 413.835 129.761C417.663 129.676 423.329 129.785 425.464 133.638C426.342 135.224 428.774 133.806 427.895 132.218Z" fill="white"/>
<path d="M130.195 274.695C124.04 279.36 118.442 284.787 113.216 290.479C107.634 296.558 101.967 303.299 98.9499 311.082C97.6738 314.373 96.8362 318.062 98.1465 321.46C98.2824 321.813 98.7754 321.678 98.7118 321.304C97.5049 314.188 101.437 307.373 105.377 301.777C110.294 294.792 116.303 288.56 122.444 282.65C125.113 280.082 127.773 277.553 130.355 274.902C130.456 274.799 130.319 274.601 130.195 274.695Z" fill="white"/>
<path d="M111.943 307.232C111.543 312.933 118.84 313.666 122.971 313.661C132.27 313.65 141.739 310.859 150.586 308.275C173.129 301.69 194.977 292.602 216.615 283.543C220.797 281.792 224.948 279.957 229.086 278.107C231.294 277.12 233.567 275.835 235.875 275.105C236.252 274.986 236.091 274.391 235.712 274.512C230.393 276.193 225.241 278.351 220.06 280.428C210.221 284.372 200.483 288.554 190.616 292.429C179.517 296.788 168.333 300.961 156.98 304.615C147.415 307.694 137.61 310.766 127.603 311.999C122.747 312.597 113.335 313.876 112.029 307.22C112.019 307.169 111.946 307.185 111.943 307.232Z" fill="white"/>
<path d="M357.831 148.111C362.817 148.22 367.592 146.844 372.409 145.655C378.024 144.269 383.806 143.011 389.594 142.706C395.608 142.389 404.979 143.783 402.664 151.893C400.767 158.535 394.999 164.233 390.284 168.99C384.122 175.205 377.449 180.918 370.668 186.442C365.541 190.619 359.901 194.405 355.162 199.031C354.815 199.37 355.282 200.022 355.695 199.722C367.99 190.803 380.105 181.147 390.779 170.323C395.701 165.332 401.567 159.429 403.631 152.52C404.282 150.342 404.407 147.899 403.142 145.911C401.441 143.239 398.064 142.265 395.094 141.954C388.738 141.287 382.109 142.848 375.94 144.209C369.952 145.53 363.875 147.093 357.816 147.995C357.747 148.006 357.767 148.109 357.831 148.111Z" fill="white"/>
<path d="M405.45 137.669C408.403 138.956 410.026 141.795 411.363 144.581C411.427 144.715 411.652 144.621 411.604 144.479C410.56 141.416 408.799 138.541 405.716 137.213C405.408 137.08 405.138 137.533 405.45 137.669Z" fill="white"/>
<path d="M310.725 227.741C332.116 213.986 350.709 196.442 371.501 181.847C371.729 181.687 371.521 181.313 371.279 181.467C349.82 195.138 331.463 213.025 310.607 227.538C310.484 227.624 310.596 227.824 310.725 227.741Z" fill="white"/>
<path d="M332.516 221.219C343.11 213.058 354.085 205.408 364.745 197.333C375.279 189.352 385.866 181.254 395.156 171.82C395.397 171.575 395.037 171.227 394.783 171.447C384.541 180.292 374.096 188.842 363.299 197.002C352.884 204.875 342.486 212.778 332.427 221.104C332.364 221.156 332.45 221.27 332.516 221.219Z" fill="white"/>
<path d="M180.461 134.38C180.603 133.512 181.731 133.26 182.229 133.985V133.985C182.439 134.29 182.803 134.45 183.169 134.399L183.221 134.391C184.059 134.274 184.69 135.138 184.324 135.901L184.065 136.441C183.91 136.765 183.891 137.137 184.012 137.475L184.225 138.069C184.507 138.856 183.778 139.63 182.976 139.394L182.941 139.384C182.58 139.278 182.19 139.392 181.942 139.676V139.676C181.377 140.325 180.309 139.965 180.252 139.106L180.223 138.679C180.2 138.339 180.026 138.027 179.749 137.828L179.608 137.727C178.824 137.165 178.904 135.975 179.755 135.523L179.843 135.476C180.146 135.315 180.356 135.021 180.412 134.683L180.461 134.38Z" fill="white"/>
<path d="M357.94 197.742C358.253 197.336 358.901 197.517 358.96 198.026L358.985 198.243C359.008 198.444 359.122 198.623 359.293 198.729L359.343 198.76C359.835 199.064 359.835 199.78 359.344 200.086L359.293 200.118C359.122 200.224 359.009 200.403 358.986 200.603L358.961 200.821C358.902 201.33 358.254 201.511 357.94 201.106V201.106C357.805 200.932 357.582 200.85 357.367 200.897L357.341 200.902C356.858 201.007 356.455 200.525 356.646 200.068L356.785 199.733C356.868 199.536 356.867 199.313 356.785 199.115L356.646 198.782C356.454 198.325 356.856 197.842 357.341 197.946L357.367 197.952C357.582 197.998 357.805 197.916 357.94 197.742V197.742Z" fill="white"/>
<path d="M224.988 109.853C225.302 109.448 225.951 109.628 226.01 110.138L226.035 110.355C226.058 110.555 226.171 110.734 226.343 110.84L226.393 110.872C226.885 111.177 226.885 111.893 226.394 112.199L226.345 112.229C226.173 112.336 226.06 112.515 226.037 112.715L226.012 112.932C225.953 113.442 225.304 113.623 224.99 113.217V113.217C224.855 113.043 224.631 112.962 224.415 113.008L224.391 113.014C223.907 113.119 223.505 112.636 223.695 112.179L223.835 111.845C223.917 111.648 223.917 111.425 223.835 111.228L223.695 110.894C223.504 110.437 223.906 109.953 224.39 110.057L224.415 110.063C224.631 110.109 224.853 110.028 224.988 109.853V109.853Z" fill="white"/>
<path d="M247.871 119.689C248.185 119.283 248.833 119.463 248.892 119.973L248.917 120.19C248.941 120.39 249.054 120.569 249.225 120.675L249.275 120.706C249.767 121.012 249.767 121.728 249.275 122.034L249.226 122.065C249.055 122.171 248.942 122.35 248.918 122.55L248.893 122.768C248.834 123.278 248.187 123.458 247.873 123.053V123.053C247.738 122.878 247.515 122.797 247.299 122.844L247.274 122.849C246.79 122.954 246.387 122.472 246.577 122.014L246.717 121.679C246.799 121.482 246.799 121.259 246.716 121.062L246.577 120.73C246.386 120.272 246.788 119.789 247.272 119.893L247.298 119.898C247.513 119.945 247.736 119.863 247.871 119.689V119.689Z" fill="white"/>
<path d="M192.719 269.761C193.033 269.355 193.681 269.536 193.74 270.045L193.765 270.261C193.788 270.461 193.901 270.64 194.072 270.746L194.122 270.777C194.614 271.083 194.614 271.798 194.122 272.104L194.073 272.135C193.902 272.241 193.789 272.42 193.766 272.62L193.74 272.839C193.682 273.349 193.034 273.529 192.72 273.123V273.123C192.585 272.949 192.362 272.868 192.147 272.915L192.121 272.92C191.637 273.025 191.235 272.542 191.426 272.085L191.565 271.752C191.648 271.554 191.648 271.331 191.565 271.134L191.426 270.801C191.235 270.344 191.636 269.861 192.121 269.965L192.146 269.97C192.361 270.017 192.584 269.935 192.719 269.761V269.761Z" fill="white"/>
<path d="M338.747 109.637C339.279 108.949 340.378 109.254 340.478 110.118L340.521 110.486C340.56 110.825 340.752 111.128 341.043 111.309L341.127 111.361C341.961 111.879 341.961 113.093 341.127 113.612L341.044 113.664C340.754 113.844 340.562 114.148 340.522 114.487L340.48 114.857C340.38 115.721 339.282 116.027 338.75 115.34V115.34C338.521 115.044 338.143 114.907 337.778 114.986L337.735 114.995C336.914 115.173 336.232 114.354 336.555 113.579L336.791 113.013C336.931 112.678 336.93 112.301 336.791 111.966L336.554 111.399C336.231 110.624 336.912 109.806 337.733 109.983L337.776 109.992C338.141 110.071 338.519 109.932 338.747 109.637V109.637Z" fill="white"/>
<path d="M199.418 292.789C199.95 292.101 201.048 292.406 201.148 293.27L201.191 293.636C201.23 293.976 201.422 294.279 201.712 294.459L201.797 294.512C202.631 295.03 202.632 296.243 201.798 296.762L201.715 296.814C201.425 296.995 201.233 297.298 201.194 297.638L201.151 298.007C201.052 298.871 199.953 299.178 199.42 298.49V298.49C199.192 298.195 198.813 298.057 198.448 298.136L198.405 298.145C197.585 298.323 196.903 297.505 197.226 296.73L197.462 296.164C197.602 295.829 197.602 295.452 197.462 295.116L197.225 294.552C196.901 293.777 197.582 292.957 198.404 293.134L198.447 293.144C198.812 293.222 199.19 293.084 199.418 292.789V292.789Z" fill="white"/>
<path d="M126.409 194.641C126.94 193.953 128.039 194.258 128.139 195.122L128.182 195.491C128.221 195.83 128.413 196.133 128.704 196.314L128.789 196.366C129.622 196.885 129.623 198.098 128.789 198.617L128.706 198.669C128.416 198.849 128.224 199.152 128.184 199.492L128.142 199.863C128.042 200.726 126.945 201.032 126.413 200.345V200.345C126.184 200.049 125.806 199.911 125.441 199.99L125.398 200C124.577 200.178 123.895 199.359 124.218 198.584L124.454 198.017C124.594 197.682 124.593 197.305 124.453 196.97L124.217 196.404C123.893 195.63 124.574 194.81 125.395 194.987L125.438 194.997C125.803 195.075 126.181 194.937 126.409 194.641V194.641Z" fill="white"/>
<path d="M244.147 351.062C244.679 350.374 245.778 350.68 245.878 351.544L245.92 351.911C245.96 352.251 246.152 352.554 246.442 352.734L246.526 352.786C247.36 353.305 247.36 354.518 246.527 355.038L246.443 355.09C246.153 355.271 245.961 355.574 245.922 355.914L245.88 356.281C245.781 357.146 244.682 357.453 244.149 356.765V356.765C243.92 356.47 243.542 356.333 243.177 356.412L243.134 356.421C242.313 356.598 241.631 355.78 241.955 355.004L242.19 354.439C242.33 354.103 242.33 353.726 242.189 353.391L241.953 352.827C241.629 352.051 242.31 351.232 243.132 351.408L243.175 351.417C243.54 351.496 243.918 351.358 244.147 351.062V351.062Z" fill="white"/>
<path d="M149.66 370.342C150.192 369.654 151.291 369.96 151.392 370.824L151.434 371.191C151.474 371.531 151.666 371.834 151.956 372.014L152.039 372.066C152.873 372.585 152.873 373.798 152.04 374.317L151.956 374.369C151.666 374.55 151.474 374.853 151.435 375.193L151.392 375.561C151.293 376.426 150.194 376.733 149.662 376.045V376.045C149.433 375.75 149.054 375.612 148.689 375.691L148.647 375.7C147.826 375.878 147.144 375.06 147.467 374.285L147.703 373.717C147.843 373.382 147.843 373.005 147.703 372.67L147.467 372.106C147.143 371.331 147.824 370.512 148.645 370.688L148.688 370.698C149.053 370.776 149.431 370.638 149.66 370.342V370.342Z" fill="white"/>
<path d="M357.54 310.558C358.071 309.87 359.17 310.175 359.27 311.039L359.313 311.407C359.353 311.747 359.545 312.049 359.835 312.23L359.919 312.282C360.753 312.8 360.753 314.014 359.92 314.533L359.836 314.585C359.546 314.766 359.354 315.069 359.315 315.409L359.272 315.778C359.173 316.642 358.074 316.948 357.542 316.261V316.261C357.313 315.965 356.935 315.828 356.57 315.907L356.527 315.916C355.706 316.094 355.024 315.276 355.347 314.501L355.583 313.935C355.723 313.6 355.723 313.222 355.583 312.887L355.346 312.323C355.022 311.547 355.703 310.727 356.525 310.904L356.568 310.913C356.934 310.992 357.311 310.854 357.54 310.558V310.558Z" fill="white"/>
<path d="M324.408 377.212C324.94 376.525 326.039 376.83 326.139 377.694L326.181 378.062C326.221 378.402 326.413 378.705 326.703 378.885L326.787 378.937C327.621 379.455 327.622 380.669 326.789 381.188L326.705 381.24C326.415 381.421 326.223 381.724 326.184 382.064L326.142 382.432C326.042 383.296 324.944 383.603 324.411 382.916V382.916C324.182 382.621 323.804 382.483 323.438 382.562L323.396 382.571C322.575 382.749 321.893 381.93 322.217 381.155L322.453 380.589C322.593 380.254 322.593 379.876 322.453 379.541L322.216 378.975C321.892 378.201 322.573 377.382 323.394 377.558L323.437 377.567C323.802 377.646 324.18 377.508 324.408 377.212V377.212Z" fill="white"/>
<path d="M351.167 233.406C351.699 232.718 352.797 233.024 352.897 233.887L352.94 234.256C352.979 234.595 353.172 234.898 353.462 235.078L353.546 235.131C354.38 235.649 354.381 236.863 353.547 237.381L353.463 237.434C353.173 237.614 352.981 237.918 352.942 238.257L352.9 238.625C352.801 239.489 351.702 239.796 351.169 239.109V239.109C350.94 238.813 350.562 238.675 350.197 238.755L350.154 238.764C349.334 238.942 348.652 238.124 348.974 237.349L349.211 236.782C349.35 236.447 349.35 236.07 349.21 235.735L348.974 235.169C348.65 234.394 349.331 233.575 350.153 233.751L350.196 233.761C350.561 233.839 350.939 233.701 351.167 233.406V233.406Z" fill="white"/>
<path d="M199.899 172.815C199.742 172.893 199.584 172.972 199.426 173.05C199.354 173.086 199.281 173.127 199.208 173.166C199.184 173.179 199.201 173.232 199.227 173.228V173.228C199.071 173.25 198.891 173.251 198.745 173.309C198.665 173.34 198.587 173.385 198.51 173.425C198.422 173.47 198.335 173.514 198.247 173.561C198.205 173.583 198.23 173.637 198.275 173.621V173.621C198.317 173.607 198.308 173.561 198.264 173.57C197.921 173.644 197.614 173.905 197.435 174.29C197.122 174.958 197.299 175.85 197.833 176.242C198.25 176.549 198.709 176.428 199.136 176.244C199.612 176.038 199.913 175.554 199.937 174.918V174.918C199.937 174.915 199.933 174.914 199.932 174.917C199.822 175.159 199.711 175.401 199.601 175.643C199.556 175.742 199.675 175.83 199.754 175.757V175.757C199.923 175.601 200.052 175.445 200.135 175.196C200.213 174.963 200.246 174.68 200.182 174.432C200.055 173.938 199.708 173.574 199.285 173.572V173.572C199.16 173.571 199.106 173.736 199.208 173.81C199.4 173.949 199.593 174.088 199.785 174.227C199.787 174.228 199.789 174.226 199.788 174.224V174.224C199.642 173.975 199.498 173.785 199.266 173.661C199.037 173.54 198.801 173.517 198.556 173.592C198.443 173.627 198.329 173.662 198.214 173.683C198.312 173.667 198.41 173.65 198.508 173.633C198.477 173.639 198.446 173.643 198.415 173.64C198.514 173.657 198.612 173.674 198.71 173.69C198.704 173.689 198.699 173.688 198.693 173.685C198.781 173.732 198.87 173.78 198.958 173.827V173.827C198.958 173.826 198.957 173.827 198.958 173.827C199.031 173.899 199.105 173.971 199.179 174.043V174.043C199.179 174.043 199.178 174.043 199.179 174.044C199.236 174.137 199.293 174.23 199.35 174.324V174.324C199.35 174.323 199.349 174.323 199.349 174.324C199.386 174.434 199.423 174.544 199.46 174.655V174.655C199.46 174.654 199.46 174.654 199.46 174.655C199.473 174.778 199.486 174.9 199.499 175.023C199.499 175.022 199.499 175.021 199.499 175.019C199.486 175.143 199.472 175.267 199.459 175.392V175.392C199.459 175.391 199.459 175.391 199.459 175.391C199.422 175.501 199.385 175.611 199.348 175.721C199.35 175.715 199.353 175.711 199.356 175.705C199.298 175.8 199.24 175.894 199.182 175.989C199.191 175.976 199.202 175.965 199.213 175.954C199.138 176.027 199.063 176.1 198.987 176.173C199.196 175.978 199.355 175.785 199.456 175.482V175.482C199.463 175.462 199.436 175.452 199.428 175.471C199.386 175.56 199.345 175.649 199.304 175.738C199.294 175.76 199.325 175.781 199.342 175.765V175.765C199.27 175.834 199.199 175.904 199.127 175.974C199.219 175.885 199.314 175.8 199.408 175.716C199.526 175.613 199.656 175.514 199.753 175.382C199.803 175.315 199.846 175.237 199.903 175.18C199.841 175.24 199.78 175.3 199.718 175.36C199.99 175.144 200.263 174.931 200.536 174.718C200.887 174.444 201.035 173.899 200.874 173.418C200.728 172.983 200.284 172.625 199.899 172.815Z" fill="white"/>
<path d="M177.803 219.022V219.022C177.75 219.083 177.792 219.182 177.873 219.182C178.067 219.182 178.261 219.182 178.455 219.182C178.465 219.182 178.47 219.171 178.463 219.164V219.164C178.333 219.033 178.213 218.939 178.043 218.911C177.868 218.881 177.739 218.931 177.577 219.02C177.706 218.956 177.738 218.938 177.671 218.966V218.966C177.643 218.974 177.906 218.968 177.935 218.972C177.937 218.972 177.938 218.972 177.94 218.972C177.942 218.972 177.944 218.973 177.946 218.974C178.051 219.011 178.142 219.079 178.219 219.176C178.187 219.134 178.188 219.139 178.222 219.192C178.232 219.207 178.294 219.3 178.3 219.317V219.317C178.306 219.333 178.344 219.397 178.341 219.38C178.339 219.374 178.338 219.367 178.337 219.36C178.347 219.448 178.356 219.536 178.366 219.625C178.351 219.481 178.354 219.34 178.322 219.198C178.295 219.112 178.266 219.027 178.236 218.941C178.255 218.997 178.273 219.052 178.292 219.107C178.213 218.871 178.126 218.649 177.935 218.522C177.873 218.489 177.811 218.457 177.75 218.424C177.654 218.376 177.717 218.423 177.94 218.565C177.95 218.572 177.959 218.561 177.951 218.552V218.552C177.89 218.49 177.829 218.412 177.763 218.362C177.633 218.264 177.5 218.25 177.362 218.323C177.276 218.369 177.209 218.442 177.14 218.519C177.11 218.553 176.976 218.696 177.106 218.569C177.267 218.412 177.014 218.653 176.994 218.675C176.889 218.797 176.827 218.974 176.789 219.144C176.743 219.351 176.742 219.583 176.789 219.789C176.846 220.036 176.937 220.289 177.082 220.475C177.408 220.892 177.937 220.967 178.315 220.61C178.447 220.486 178.549 220.367 178.614 220.17C178.673 219.995 178.708 219.754 178.651 219.57V219.57C178.646 219.553 178.622 219.555 178.618 219.572C178.588 219.717 178.557 219.862 178.527 220.007C178.515 220.065 178.584 220.098 178.62 220.051V220.051C178.828 219.774 178.854 219.293 178.62 219.022C178.38 218.745 178.041 218.747 177.803 219.022Z" fill="white"/>
<path d="M142.613 155.729C142.582 155.725 142.549 155.716 142.519 155.716C142.572 155.715 142.66 155.743 142.553 155.72V155.72C142.505 155.709 142.466 155.767 142.497 155.806C142.535 155.853 142.573 155.901 142.611 155.949C142.681 156.037 142.795 155.977 142.742 155.878C142.653 155.714 142.531 155.583 142.371 155.498C142.309 155.464 142.246 155.438 142.184 155.406C142.252 155.442 142.32 155.478 142.388 155.514C142.361 155.498 142.336 155.48 142.312 155.458C142.37 155.514 142.427 155.57 142.484 155.626C142.473 155.613 142.463 155.601 142.454 155.587C142.498 155.659 142.542 155.731 142.586 155.804C142.578 155.79 142.572 155.778 142.566 155.763C142.594 155.848 142.623 155.933 142.651 156.018C142.646 156.003 142.643 155.99 142.64 155.974C142.651 156.069 142.661 156.164 142.671 156.258C142.669 156.238 142.669 156.219 142.671 156.198C142.661 156.292 142.651 156.387 142.641 156.481C142.644 156.459 142.649 156.439 142.656 156.419C142.628 156.503 142.599 156.588 142.571 156.672C142.591 156.621 142.651 156.527 142.544 156.701C142.436 156.878 142.504 156.774 142.536 156.731C142.628 156.609 142.35 156.886 142.45 156.815C142.477 156.795 142.503 156.772 142.531 156.754C142.557 156.736 142.584 156.723 142.61 156.705C142.74 156.618 142.777 156.547 142.855 156.419C142.844 156.436 143.022 156.145 142.88 156.379C142.775 156.549 142.855 156.421 142.884 156.383C142.907 156.353 142.93 156.325 142.955 156.297C143.263 155.959 143.183 155.23 142.822 154.999C142.546 154.822 142.216 154.679 141.911 154.832C141.676 154.95 141.453 155.084 141.279 155.325C141.029 155.672 140.921 156.117 141.013 156.579C141.112 157.078 141.456 157.358 141.812 157.529C142.074 157.654 142.467 157.518 142.647 157.251V157.251C142.662 157.228 142.637 157.199 142.612 157.212C142.556 157.241 142.5 157.27 142.443 157.3C142.377 157.335 142.399 157.426 142.473 157.42C142.52 157.417 142.567 157.413 142.613 157.407C142.959 157.368 143.296 157.05 143.279 156.568C143.262 156.075 142.986 155.777 142.613 155.729Z" fill="white"/>
<path d="M205.23 111.713C205.228 111.559 205.24 111.4 205.232 111.247C205.222 111.035 205.167 111.552 205.221 111.356C205.258 111.219 205.257 111.067 205.268 110.923C205.3 110.513 205.062 110.044 204.782 109.856V109.856C204.782 109.855 204.781 109.856 204.781 109.857C204.88 109.982 204.979 110.107 205.078 110.231C205.082 110.235 205.088 110.231 205.086 110.226V110.226C205.083 110.223 205.077 110.225 205.078 110.229C205.098 110.427 205.119 110.626 205.139 110.824C205.143 110.858 205.196 110.862 205.205 110.829V110.829C205.14 111.069 205.257 110.672 205.27 110.623C205.327 110.416 205.343 110.204 205.337 109.987C205.329 109.691 205.149 109.462 204.912 109.452C204.696 109.443 204.488 109.497 204.293 109.6C204.212 109.644 204.261 109.736 204.349 109.706C204.354 109.704 204.36 109.702 204.365 109.7C204.368 109.699 204.371 109.699 204.374 109.7V109.7C204.396 109.704 204.4 109.688 204.378 109.685C204.005 109.637 203.644 109.913 203.44 110.299C203.225 110.706 203.23 111.243 203.224 111.713C203.216 112.374 203.691 113.007 204.227 112.976C204.764 112.946 205.238 112.421 205.23 111.713Z" fill="white"/>
<path d="M241.544 109.707C241.487 109.82 241.454 109.899 241.431 109.958C241.366 110.125 241.408 110.364 241.579 110.421C241.764 110.482 241.949 110.543 242.134 110.604C242.138 110.605 242.141 110.601 242.139 110.598V110.598C242.137 110.594 242.131 110.596 242.131 110.601C242.14 110.679 242.148 110.758 242.156 110.837C242.163 110.903 242.283 110.911 242.301 110.847C242.373 110.597 242.454 110.353 242.478 110.064C242.511 109.668 242.166 109.459 241.909 109.519C241.307 109.659 240.47 110.671 240.914 111.514C241.185 112.028 241.668 112.077 242.033 111.695C242.287 111.43 242.394 110.778 242.514 110.421C242.787 109.605 241.942 108.914 241.544 109.707Z" fill="white"/>
<path d="M347.865 121.929C347.621 122.141 347.39 122.369 347.159 122.602C346.472 123.296 347.486 124.642 348.143 123.843C348.241 123.724 348.333 123.595 348.426 123.471C348.588 123.257 348.684 122.92 348.603 122.628C348.502 122.262 348.417 122.151 348.123 122.022C347.891 121.921 347.624 122.042 347.454 122.245C347.355 122.363 347.253 122.479 347.159 122.602C346.525 123.43 347.593 124.709 348.143 123.843C348.329 123.551 348.508 123.261 348.677 122.952C349.01 122.345 348.347 121.51 347.865 121.929Z" fill="white"/>
<path d="M369.899 130.727C370.818 130.727 370.82 128.927 369.899 128.927C368.981 128.927 368.979 130.727 369.899 130.727Z" fill="white"/>
<path d="M369.899 245.38C370.746 245.38 370.747 243.722 369.899 243.722C369.053 243.722 369.051 245.38 369.899 245.38Z" fill="white"/>
<path d="M343.96 261.802C343.959 261.721 343.958 261.641 343.957 261.56C343.951 261.06 343.613 260.581 343.198 260.604C342.793 260.627 342.433 261.024 342.439 261.56C342.444 261.901 342.448 262.242 342.452 262.583C342.459 263.074 342.791 263.546 343.198 263.523C343.608 263.5 343.937 263.11 343.944 262.583C343.949 262.242 343.953 261.901 343.957 261.56C343.964 261.06 343.604 260.581 343.198 260.604C342.782 260.627 342.446 261.024 342.439 261.56C342.438 261.641 342.437 261.721 342.436 261.802C342.43 262.304 342.791 262.785 343.198 262.762C343.606 262.739 343.967 262.34 343.96 261.802Z" fill="white"/>
<path d="M243.388 369.018C243.296 368.798 243.205 368.578 243.111 368.359C242.889 367.839 242.239 367.839 242.016 368.359C241.923 368.578 241.831 368.798 241.739 369.018C241.579 369.404 241.561 369.848 241.739 370.232C241.909 370.598 242.227 370.828 242.563 370.828C242.9 370.828 243.218 370.598 243.388 370.232C243.567 369.848 243.548 369.404 243.388 369.018Z" fill="white"/>
<path d="M239.127 336.83C239.079 336.886 239.031 336.94 238.98 336.992C239.047 336.927 239.114 336.861 239.181 336.796C239.124 336.85 239.067 336.9 239.003 336.939C239.082 336.896 239.162 336.854 239.241 336.812C239.21 336.828 239.181 336.84 239.148 336.847C239.237 336.832 239.325 336.817 239.414 336.802C239.401 336.804 239.388 336.805 239.374 336.803C239.463 336.818 239.552 336.833 239.641 336.849C239.617 336.845 239.594 336.839 239.572 336.829C239.651 336.872 239.731 336.914 239.81 336.956C239.793 336.946 239.78 336.936 239.765 336.922C239.832 336.986 239.899 337.051 239.965 337.117C239.951 337.099 239.938 337.082 239.926 337.063C239.977 337.146 240.028 337.23 240.079 337.313C240.057 337.272 240.039 337.23 240.023 337.184C240.055 337.281 240.088 337.378 240.12 337.474C240.006 337.119 239.91 336.748 239.616 336.552C239.569 336.527 239.522 336.502 239.475 336.477C239.462 336.471 239.449 336.488 239.438 336.478V336.478C239.437 336.478 239.437 336.477 239.436 336.477C239.422 336.468 239.41 336.453 239.397 336.443C239.288 336.36 239.152 336.32 239.026 336.366C238.969 336.387 238.911 336.418 238.864 336.464V336.464C238.85 336.477 238.831 336.482 238.814 336.491C238.776 336.512 238.738 336.532 238.699 336.552C238.593 336.624 238.508 336.722 238.444 336.847C238.279 337.116 238.201 337.473 238.229 337.813C238.253 338.109 238.286 338.368 238.411 338.628C238.607 339.034 238.971 339.335 239.356 339.327C239.828 339.317 240.204 339.005 240.523 338.589C240.881 338.12 240.92 337.29 240.523 336.83C240.117 336.361 239.531 336.357 239.127 336.83Z" fill="white"/>
<path d="M190.738 305.721C190.597 305.695 190.441 305.685 190.308 305.615C190.375 305.65 190.441 305.686 190.508 305.721C190.399 305.654 190.689 305.93 190.631 305.844C190.675 305.916 190.719 305.988 190.763 306.059V306.059C190.762 306.058 190.761 306.059 190.761 306.06C190.789 306.141 190.816 306.222 190.843 306.304C190.841 306.297 190.839 306.29 190.838 306.283C190.848 306.377 190.858 306.471 190.868 306.566C190.868 306.562 190.868 306.558 190.868 306.555C190.858 306.649 190.848 306.744 190.838 306.838C190.841 306.808 190.848 306.778 190.857 306.749C190.828 306.834 190.8 306.919 190.772 307.003C190.804 306.911 190.852 306.827 190.899 306.745C190.923 306.704 191.034 306.522 190.95 306.658C190.837 306.842 191.021 306.554 191.056 306.465C191.098 306.358 191.13 306.243 191.167 306.133C191.211 305.999 191.197 305.778 191.167 305.641C191.124 305.446 191.029 305.282 190.903 305.161C190.65 304.913 190.369 304.937 190.088 305.088C189.874 305.202 189.661 305.428 189.496 305.642C189.247 305.966 189.103 306.393 189.206 306.849C189.324 307.369 189.704 307.67 190.117 307.682C190.323 307.688 190.534 307.629 190.737 307.592C190.895 307.564 191.046 307.393 191.137 307.245C191.238 307.081 191.31 306.869 191.303 306.657C191.297 306.484 191.262 306.319 191.198 306.167C191.121 305.982 190.908 305.751 190.738 305.721Z" fill="white"/>
<path d="M156.92 344.522C156.833 344.632 156.748 344.744 156.658 344.851C156.624 344.893 156.589 344.933 156.553 344.973C156.683 344.854 156.717 344.821 156.653 344.875C156.467 345.025 156.877 344.822 156.727 344.831C156.661 344.835 156.58 344.877 156.5 344.935C156.385 345.019 156.473 345.151 156.608 345.106C156.691 345.079 156.774 345.051 156.856 345.024C156.927 345 156.982 344.913 157.05 344.943V344.943C156.94 344.894 156.832 344.819 156.719 344.774C156.38 344.641 156.012 344.759 155.818 345.151C155.587 345.619 155.759 346.189 156.006 346.621C156.028 346.659 156.069 346.636 156.051 346.596V346.596C156.033 346.558 155.987 346.573 155.998 346.613C156.21 347.378 156.978 347.591 157.534 347.296C157.885 347.109 158.16 346.755 158.429 346.422C158.828 345.93 158.85 345.009 158.429 344.521C158.006 344.032 157.338 343.986 156.92 344.522Z" fill="white"/>
<path d="M122.075 281.87C122.967 281.785 123.981 281.106 124.523 280.207C124.647 280.002 124.578 279.68 124.451 279.509C124.106 279.041 123.639 279.088 123.18 279.228C122.814 279.339 122.442 279.672 122.075 279.687C120.955 279.73 120.969 281.976 122.075 281.87Z" fill="white"/>
<path d="M150.829 274.784C150.873 274.784 150.873 274.698 150.829 274.698C150.784 274.698 150.784 274.784 150.829 274.784Z" fill="white"/>
<path d="M111.121 168.566C110.857 168.539 110.661 168.423 110.394 168.528C109.409 168.918 109.83 170.877 110.822 170.484C110.98 170.422 111.135 170.355 111.291 170.286C111.899 170.016 111.9 168.996 111.291 168.726C111.135 168.657 110.98 168.591 110.822 168.528C109.832 168.136 109.408 170.093 110.394 170.484C110.661 170.589 110.857 170.473 111.121 170.446C112.079 170.347 112.081 168.666 111.121 168.566Z" fill="white"/>
<path d="M98.7982 256.806C99.8616 256.806 99.8634 254.724 98.7982 254.724C97.7348 254.723 97.733 256.806 98.7982 256.806Z" fill="white"/>
<path d="M120.094 375.927C120.143 375.767 120.201 375.607 120.243 375.444C120.178 375.698 120.231 375.479 120.255 375.41C120.276 375.349 120.297 375.288 120.318 375.226C120.337 375.171 120.356 375.116 120.374 375.062C120.542 374.573 120.203 374.146 119.815 374.356C119.771 374.38 119.727 374.404 119.684 374.427C119.639 374.452 119.594 374.476 119.549 374.501C119.521 374.515 119.494 374.53 119.467 374.545C119.417 374.572 119.341 374.575 119.511 374.522C119.381 374.563 119.252 374.647 119.127 374.708C118.864 374.836 118.657 375.041 118.578 375.4C118.503 375.741 118.582 376.114 118.78 376.364C118.978 376.614 119.275 376.713 119.545 376.619C119.83 376.52 119.992 376.259 120.094 375.927Z" fill="white"/>
<path d="M195.279 423.573C195.361 423.4 195.45 423.23 195.526 423.052C195.614 422.844 195.673 422.605 195.744 422.386C195.864 422.02 195.502 421.565 195.212 421.715C195.037 421.805 194.849 421.88 194.683 421.99C194.541 422.084 194.406 422.197 194.269 422.3C193.861 422.607 193.783 423.336 194.12 423.761C194.456 424.185 195.034 424.087 195.279 423.573Z" fill="white"/>
<path d="M304.177 389.451C305.045 389.451 305.046 387.753 304.177 387.753C303.31 387.753 303.309 389.451 304.177 389.451Z" fill="white"/>
<path d="M349.251 392.053C349.259 392.37 349.279 392.7 349.352 393.005C349.451 393.417 349.755 393.726 350.103 393.725V393.725C350.105 393.725 350.106 393.721 350.105 393.72C350.011 393.63 349.918 393.541 349.825 393.451C349.707 393.338 349.536 393.451 349.631 393.584C349.669 393.638 349.712 393.689 349.761 393.737C349.975 393.945 350.262 394.041 350.529 393.943C350.917 393.801 351.147 393.416 351.28 392.956C351.349 392.715 351.353 392.451 351.281 392.21C351.251 392.11 351.22 392.007 351.179 391.913C351.067 391.66 350.826 391.498 350.596 391.583C350.481 391.626 350.398 391.711 350.313 391.812C350.299 391.829 350.283 391.845 350.268 391.863C350.187 391.957 350.404 391.733 350.322 391.81C350.193 391.931 350.105 392.043 350.019 392.215C350.008 392.238 349.995 392.259 349.984 392.282C349.932 392.384 350.122 392.086 350.032 392.198C349.999 392.24 349.873 392.373 350.004 392.245C350.155 392.098 349.921 392.271 350.104 392.174C350.252 392.096 350.195 392.131 350.167 392.14C350.094 392.164 350.354 392.114 350.327 392.116C350.221 392.121 350.527 392.162 350.465 392.139C350.437 392.129 350.661 392.247 350.614 392.216C350.55 392.174 350.786 392.405 350.728 392.323C350.742 392.344 350.861 392.565 350.803 392.436V392.436C350.829 392.494 350.786 392.68 350.766 392.741C350.675 393.024 350.584 393.306 350.492 393.589C350.492 393.591 350.494 393.592 350.495 393.591V393.591C350.792 393.34 350.938 392.927 350.853 392.483C350.841 392.423 350.833 392.363 350.826 392.301C350.835 392.389 350.845 392.476 350.854 392.563C350.838 392.394 350.836 392.224 350.839 392.053C350.849 391.529 350.467 391.029 350.045 391.053C349.627 391.076 349.235 391.493 349.251 392.053Z" fill="white"/>
<path d="M325.906 317.644C326.512 316.89 327.422 316.58 327.813 315.547C327.949 315.188 327.713 314.581 327.342 314.775C326.478 315.228 325.603 315.561 324.896 316.371C324.218 317.15 325.249 318.461 325.906 317.644Z" fill="white"/>
<path d="M383.43 308.514C383.21 308.553 382.991 308.592 382.771 308.631C382.563 308.668 382.391 308.993 382.4 309.245C382.409 309.5 382.549 309.82 382.771 309.859C382.991 309.898 383.21 309.937 383.43 309.976C383.643 310.014 383.858 309.997 384.015 309.781C384.123 309.632 384.192 309.45 384.192 309.245C384.192 309.05 384.124 308.846 384.015 308.709C383.849 308.499 383.65 308.475 383.43 308.514Z" fill="white"/>
<path d="M397.967 255.807C398.011 255.807 398.011 255.721 397.967 255.721C397.923 255.721 397.923 255.807 397.967 255.807Z" fill="white"/>
<path d="M386.136 204.857C385.948 204.897 385.759 204.936 385.571 204.975C385.471 204.996 385.392 204.966 385.645 204.966C385.326 204.966 385.02 205.32 385.035 205.735C385.05 206.151 385.303 206.503 385.645 206.503C385.676 206.503 385.422 206.459 385.494 206.478C385.52 206.484 385.546 206.488 385.571 206.494C385.759 206.533 385.947 206.572 386.136 206.612C386.388 206.664 386.653 206.632 386.838 206.378C386.968 206.199 387.05 205.981 387.05 205.734C387.05 205.501 386.969 205.256 386.838 205.091C386.642 204.844 386.398 204.803 386.136 204.857Z" fill="white"/>
<path d="M336.472 211.502C336.556 211.298 336.64 211.094 336.724 210.891C336.82 210.657 336.898 210.425 336.887 210.156C336.879 209.948 336.829 209.746 336.711 209.597C336.592 209.447 336.432 209.385 336.267 209.375C336.053 209.361 335.869 209.459 335.684 209.58C335.522 209.686 335.36 209.792 335.198 209.898C334.661 210.249 334.603 211.226 335.01 211.739C335.417 212.253 336.193 212.178 336.472 211.502Z" fill="white"/>
<path d="M326.749 119.104C326.842 118.931 326.935 118.759 327.027 118.586C327.143 118.37 327.231 118.173 327.223 117.895C327.222 117.847 327.22 117.799 327.219 117.751C327.21 117.437 327.02 117.196 326.77 117.185C326.732 117.183 326.694 117.181 326.655 117.179C326.441 117.17 326.276 117.281 326.106 117.426C325.969 117.543 325.832 117.659 325.696 117.776C325.474 117.964 325.302 118.26 325.314 118.614C325.323 118.871 325.392 119.114 325.54 119.3C325.679 119.476 325.887 119.584 326.084 119.584C326.37 119.585 326.594 119.393 326.749 119.104Z" fill="white"/>
<path d="M301.602 191.276C301.508 191.389 301.386 191.519 301.298 191.651C301.648 192.092 301.998 192.533 302.348 192.974C302.451 192.821 302.551 192.674 302.626 192.496C302.952 191.713 302.299 190.892 301.678 191.301C301.536 191.394 301.419 191.521 301.298 191.651C300.567 192.429 301.622 193.748 302.348 192.974C302.452 192.863 302.556 192.709 302.646 192.591C303.305 191.727 302.289 190.447 301.602 191.276Z" fill="white"/>
<path d="M253.02 135.644C252.995 135.642 252.97 135.641 252.945 135.637V135.637C253.027 135.651 253.109 135.664 253.191 135.678C253.126 135.665 253.064 135.645 253.003 135.614C253.078 135.654 253.153 135.694 253.229 135.734C253.187 135.71 253.149 135.683 253.113 135.649C253.178 135.712 253.243 135.776 253.307 135.839C253.268 135.798 253.228 135.75 253.196 135.7C253.246 135.782 253.296 135.864 253.346 135.946C253.331 135.918 253.318 135.891 253.307 135.859C253.339 135.956 253.371 136.051 253.403 136.148C253.397 136.124 253.392 136.102 253.388 136.078C253.399 136.184 253.411 136.291 253.422 136.397C253.419 136.365 253.419 136.334 253.421 136.301C253.41 136.407 253.399 136.513 253.388 136.618C253.392 136.585 253.399 136.555 253.41 136.524C253.378 136.618 253.346 136.712 253.315 136.807C253.324 136.783 253.334 136.761 253.346 136.739C253.297 136.818 253.249 136.897 253.2 136.977C253.28 136.846 253.352 136.708 253.431 136.578C253.385 136.653 253.34 136.728 253.294 136.802C253.308 136.782 253.323 136.764 253.337 136.743C253.412 136.632 253.256 136.818 253.246 136.828C253.388 136.685 253.501 136.564 253.574 136.344C253.622 136.202 253.651 136.126 253.645 135.949C253.633 135.608 253.496 135.248 253.246 135.082C253.083 134.973 252.935 134.94 252.751 134.92C252.304 134.871 251.879 135.171 251.668 135.666C251.424 136.238 251.483 136.995 251.855 137.464C252.146 137.831 252.572 138.013 252.982 137.967C253.232 137.94 253.453 137.856 253.635 137.627C253.795 137.425 253.915 137.094 253.905 136.805C253.894 136.504 253.816 136.192 253.635 135.982C253.63 135.978 253.626 135.974 253.621 135.969C253.506 135.857 253.387 135.741 253.236 135.687C253.166 135.662 253.094 135.647 253.02 135.644Z" fill="white"/>
<path d="M237.993 90.3156C237.715 90.7318 237.403 91.1414 237.254 91.662C237.148 92.0349 237.165 92.4253 237.191 92.813C237.27 93.9953 238.571 93.9968 238.651 92.813C238.657 92.7271 238.665 92.6412 238.67 92.5552C238.683 92.3239 238.621 92.7261 238.671 92.5428C238.674 92.5343 238.696 92.3829 238.705 92.3824C238.711 92.3821 238.61 92.6152 238.7 92.4296C238.772 92.2797 238.568 92.5822 238.695 92.4461C238.74 92.3971 238.781 92.3382 238.825 92.287C238.952 92.1393 239.086 92.0002 239.218 91.8596C239.566 91.4894 239.543 90.6918 239.218 90.3156C238.897 89.9437 238.305 89.8492 237.993 90.3156Z" fill="white"/>
<path d="M237.771 164.853C237.18 164.889 236.445 164.825 236.016 165.439C235.757 165.809 235.755 166.3 236.016 166.673C236.445 167.285 237.181 167.223 237.771 167.259C238.271 167.289 238.748 166.684 238.726 166.056C238.704 165.43 238.306 164.821 237.771 164.853Z" fill="white"/>
<path d="M306.403 127.794C306.447 127.794 306.447 127.708 306.403 127.708C306.359 127.708 306.359 127.794 306.403 127.794Z" fill="white"/>
<path d="M206.05 139.126C205.863 139.174 205.676 139.221 205.489 139.269C205.369 139.3 205.324 139.259 205.595 139.259C205.214 139.259 204.848 139.682 204.866 140.178C204.883 140.677 205.186 141.098 205.595 141.098C205.634 141.098 205.334 141.042 205.413 141.068C205.438 141.076 205.464 141.081 205.489 141.088C205.676 141.135 205.863 141.183 206.05 141.231C206.349 141.307 206.676 141.248 206.893 140.95C207.049 140.736 207.147 140.474 207.147 140.178C207.147 139.898 207.05 139.604 206.893 139.406C206.663 139.117 206.359 139.047 206.05 139.126Z" fill="white"/>
<path d="M187.797 96.2302C187.841 96.2302 187.841 96.144 187.797 96.144C187.753 96.144 187.753 96.2302 187.797 96.2302Z" fill="white"/>
<path d="M205.084 226.641C205.436 226.634 205.83 226.644 206.092 226.294C206.385 225.901 206.428 225.021 206.075 224.674C205.872 224.475 205.667 224.473 205.462 224.674C205.267 224.866 205.233 225.165 205.21 225.456C205.208 225.484 205.203 225.518 205.204 225.546C205.198 225.353 205.226 225.387 205.211 225.459V225.459C205.208 225.472 205.214 225.474 205.218 225.461C205.249 225.375 205.254 225.356 205.234 225.405C205.216 225.441 205.225 225.426 205.262 225.363C205.35 225.218 205.209 225.397 205.323 225.284V225.284C205.331 225.277 205.425 225.213 205.434 225.209C205.479 225.186 205.485 225.182 205.45 225.197C205.449 225.198 205.448 225.198 205.447 225.198C205.432 225.201 205.413 225.208 205.399 225.214C205.323 225.249 205.561 225.201 205.469 225.202C205.341 225.203 205.212 225.209 205.084 225.206C204.786 225.2 204.501 225.541 204.514 225.924C204.528 226.307 204.764 226.648 205.084 226.641Z" fill="white"/>
<path d="M246.137 76.1747C245.903 76.2019 245.668 76.2059 245.436 76.2551C245.509 76.2429 245.582 76.2304 245.655 76.2182C245.631 76.2222 245.607 76.2239 245.582 76.2217C245.652 76.2337 245.722 76.2454 245.792 76.2574C245.653 76.2319 245.992 76.3928 245.894 76.3168C246.076 76.4575 246.057 76.4872 246.005 76.4188C246.101 76.5764 246.13 76.6251 246.094 76.5649C246.055 76.5012 246.016 76.4377 245.977 76.3748C245.963 76.3546 245.913 76.3093 245.91 76.2814C245.916 76.3358 246.044 76.4979 245.922 76.2991C245.84 76.1655 245.74 76.076 245.609 76.0283C245.288 75.9117 245.017 76.1707 244.871 76.5227C244.678 76.9875 244.731 77.5825 245.04 77.952C245.189 78.1293 245.368 78.269 245.572 78.3134C245.758 78.3539 245.948 78.3766 246.137 78.3986C246.349 78.4236 246.615 78.2567 246.761 78.0729C246.914 77.88 247.029 77.5636 247.019 77.2865C246.999 76.7302 246.629 76.117 246.137 76.1747Z" fill="white"/>
<path d="M306.403 120.893C306.447 120.893 306.447 120.807 306.403 120.807C306.359 120.807 306.359 120.893 306.403 120.893Z" fill="white"/>
<path d="M207.649 161.716C207.382 161.72 207.088 161.685 206.827 161.761C206.165 161.955 206.164 163.255 206.827 163.449C207.088 163.526 207.382 163.49 207.649 163.495C208.018 163.5 208.372 163.081 208.355 162.605C208.338 162.128 208.045 161.709 207.649 161.716Z" fill="white"/>
<path d="M189.165 207.466C190.053 207.466 190.054 205.727 189.165 205.727C188.277 205.727 188.276 207.466 189.165 207.466Z" fill="white"/>
<path d="M191.729 166.699C191.793 166.618 191.856 166.537 191.92 166.456C192.185 166.118 192.208 165.506 191.92 165.172C191.632 164.839 191.186 164.814 190.901 165.172C190.781 165.323 190.663 165.475 190.544 165.627C190.323 165.908 189.984 166.233 189.912 166.627C189.791 167.289 190.239 167.853 190.764 167.701C191.076 167.611 191.336 167.183 191.559 166.906C191.679 166.756 191.799 166.605 191.92 166.456C191.58 166.029 191.241 165.601 190.901 165.172C190.837 165.253 190.772 165.332 190.708 165.412C190.439 165.747 190.422 166.368 190.708 166.699C190.995 167.031 191.445 167.061 191.729 166.699Z" fill="white"/>
<path d="M155.513 210.047C155.511 210.085 155.554 209.978 155.521 210.012C155.494 210.04 155.479 210.1 155.444 210.13C155.346 210.214 155.214 210.144 155.415 210.195C155.696 210.266 155.916 210.494 156.193 210.564C156.513 210.644 156.795 210.32 156.716 209.905C156.585 209.213 155.896 208.584 155.336 208.626C154.721 208.672 154.35 209.301 154.358 210.047C154.368 210.998 155.447 210.967 155.513 210.047Z" fill="white"/>
<path d="M193.273 248.129C194.285 248.129 194.286 246.148 193.273 246.148C192.261 246.148 192.26 248.129 193.273 248.129Z" fill="white"/>
<path d="M170.163 273.312C170.177 273.253 170.19 273.195 170.203 273.136C170.215 273.086 170.226 273.036 170.237 272.986C170.24 272.974 170.256 272.875 170.263 272.874C170.251 272.876 170.178 273.111 170.235 272.954C170.312 272.739 170.38 272.545 170.392 272.303C170.395 272.253 170.397 272.204 170.399 272.154C170.41 271.892 170.206 271.635 169.998 271.649C169.958 271.651 169.919 271.654 169.88 271.657C169.686 271.672 169.534 271.757 169.362 271.855C169.27 271.908 169.334 271.825 169.426 271.82C169.401 271.821 169.371 271.839 169.348 271.848C169.304 271.863 169.261 271.879 169.217 271.894C169.171 271.911 169.124 271.928 169.078 271.944C168.44 272.172 168.216 273.207 168.688 273.803C169.162 274.398 169.982 274.114 170.163 273.312Z" fill="white"/>
<path d="M205.596 304.904C205.425 304.918 205.254 304.931 205.083 304.945C203.905 305.038 204.535 307.249 205.423 306.527C205.52 306.461 205.616 306.396 205.713 306.33C206.129 306.114 206.13 305.474 205.713 305.258C205.616 305.192 205.52 305.126 205.423 305.061C204.54 304.343 203.897 306.549 205.083 306.643C205.254 306.656 205.425 306.67 205.596 306.683C206.504 306.755 206.505 304.833 205.596 304.904Z" fill="white"/>
<path d="M176.372 320.458C176.372 320.19 176.372 319.922 176.372 319.654C176.372 319.062 175.958 318.494 175.473 318.522C174.986 318.549 174.575 319.019 174.575 319.654C174.575 319.922 174.575 320.19 174.575 320.458C174.575 321.051 174.988 321.618 175.473 321.59C175.96 321.563 176.372 321.093 176.372 320.458Z" fill="white"/>
<path d="M226.133 330.772C226.098 330.77 226.062 330.769 226.027 330.768C225.952 330.767 225.933 330.859 226 330.893C226.081 330.936 226.161 330.978 226.242 331.02C226.256 331.027 226.27 331.01 226.261 330.998V330.998C226.061 330.732 225.74 330.639 225.464 330.733C224.975 330.899 224.595 331.515 224.752 332.172C224.847 332.572 225.077 332.876 225.369 333.063C225.905 333.405 226.576 333.622 227.122 333.189C227.517 332.876 227.502 332.197 227.122 331.88C227.076 331.842 226.971 331.743 227.164 331.927C227.104 331.87 227.059 331.806 226.989 331.754C226.938 331.716 226.884 331.687 226.83 331.653C226.658 331.541 226.482 331.447 226.303 331.352C226.367 331.387 226.432 331.421 226.496 331.455C226.384 331.394 226.274 331.326 226.171 331.241C226.018 331.113 226.35 331.439 226.215 331.283C226.203 331.268 226.191 331.252 226.178 331.239C226.1 331.159 226.32 331.515 226.269 331.381C226.297 331.465 226.325 331.548 226.353 331.631C226.35 331.622 226.348 331.613 226.347 331.604C226.356 331.696 226.366 331.789 226.376 331.881C226.375 331.872 226.374 331.864 226.375 331.855C226.365 331.947 226.356 332.039 226.346 332.132C226.346 332.123 226.348 332.115 226.351 332.106C226.323 332.189 226.295 332.272 226.267 332.355C226.247 332.408 226.153 332.531 226.096 332.587C225.966 332.716 226.031 332.65 226.075 332.626C226.009 332.661 225.944 332.696 225.879 332.731C226.048 332.651 226.178 332.548 226.279 332.408C226.347 332.315 226.24 332.254 226.168 332.344C226.146 332.372 226.124 332.399 226.102 332.427C226.061 332.479 225.89 332.592 225.956 332.586V332.586C226.015 332.581 226.074 332.574 226.133 332.571C226.506 332.548 226.865 332.174 226.847 331.671C226.829 331.169 226.533 330.791 226.133 330.772Z" fill="white"/>
<path d="M254.868 347.442C254.902 347.679 254.935 347.916 254.969 348.154C254.987 348.282 254.962 348.373 254.962 348.061C254.962 348.463 255.243 348.848 255.572 348.829C255.903 348.811 256.182 348.492 256.182 348.061C256.182 348.022 256.146 348.341 256.162 348.25C256.168 348.219 256.171 348.186 256.176 348.154C256.209 347.917 256.243 347.68 256.276 347.442C256.321 347.122 256.291 346.782 256.088 346.547C255.946 346.382 255.77 346.278 255.572 346.278C255.385 346.278 255.188 346.38 255.056 346.547C254.859 346.795 254.821 347.11 254.868 347.442Z" fill="white"/>
<path d="M254.202 378.375C254.085 378.387 253.968 378.397 253.851 378.416C253.728 378.437 253.621 378.504 253.51 378.568C253.423 378.618 253.343 378.665 253.281 378.762C253.136 378.988 253.135 379.236 253.281 379.464C253.343 379.561 253.423 379.608 253.51 379.658C253.597 379.708 253.683 379.768 253.776 379.797C253.91 379.838 254.065 379.837 254.202 379.851C254.508 379.882 254.801 379.489 254.787 379.113C254.774 378.74 254.529 378.341 254.202 378.375Z" fill="white"/>
<path d="M222.711 391.408C223.816 391.408 223.818 389.245 222.711 389.245C221.606 389.245 221.605 391.408 222.711 391.408Z" fill="white"/>
<path d="M312.393 324.999C313.508 324.999 313.51 322.816 312.393 322.816C311.278 322.816 311.276 324.999 312.393 324.999Z" fill="white"/>
<path d="M302.809 369.062C303.996 369.062 303.998 366.737 302.809 366.737C301.622 366.737 301.62 369.062 302.809 369.062Z" fill="white"/>
<path d="M294.834 365.007C295.27 365.498 295.786 365.935 296.393 365.76C296.909 365.611 297.334 365.222 297.609 364.654C297.782 364.296 297.444 363.917 297.169 364.101C296.945 364.251 296.677 364.499 296.412 364.429C296.139 364.356 295.912 364.132 295.719 363.892C295.144 363.174 294.236 364.333 294.834 365.007Z" fill="white"/>
<path d="M319.239 354.142C319.283 354.142 319.283 354.056 319.239 354.056C319.195 354.056 319.195 354.142 319.239 354.142Z" fill="white"/>
<path d="M339.776 305.836C339.82 305.836 339.82 305.75 339.776 305.75C339.732 305.75 339.732 305.836 339.776 305.836Z" fill="white"/>
<path d="M331.834 301.004C332.105 300.915 332.382 300.711 332.583 300.468C332.971 299.997 333.116 299.298 332.942 298.652C332.843 298.285 332.574 297.966 332.246 297.984C331.906 298.003 331.668 298.26 331.55 298.652C331.631 298.383 331.597 298.521 331.569 298.584C331.489 298.766 331.652 298.479 331.62 298.516C331.578 298.565 331.54 298.615 331.495 298.661C331.554 298.603 331.613 298.546 331.672 298.489C331.633 298.524 331.593 298.553 331.55 298.578C331.622 298.539 331.694 298.501 331.767 298.462C331.713 298.49 331.659 298.508 331.602 298.519C331.686 298.505 331.77 298.491 331.855 298.476C331.778 298.489 331.701 298.488 331.624 298.476C331.714 298.492 331.804 298.507 331.893 298.522C331.873 298.518 331.853 298.514 331.833 298.508C331.187 298.307 330.533 298.903 330.533 299.756C330.534 300.598 331.188 301.216 331.834 301.004Z" fill="white"/>
<path d="M353.469 261.844C353.513 261.844 353.513 261.758 353.469 261.758C353.425 261.758 353.425 261.844 353.469 261.844Z" fill="white"/>
<path d="M341.147 235.969C341.191 235.969 341.191 235.883 341.147 235.883C341.103 235.883 341.102 235.969 341.147 235.969Z" fill="white"/>
<path d="M352.099 217.854C352.143 217.854 352.143 217.768 352.099 217.768C352.055 217.768 352.054 217.854 352.099 217.854Z" fill="white"/>
<path d="M326.436 212.636C326.431 212.378 326.425 212.121 326.42 211.864C326.406 211.193 325.962 210.549 325.401 210.58C324.837 210.612 324.397 211.144 324.382 211.864C324.377 212.121 324.372 212.378 324.366 212.636C324.352 213.318 324.853 213.971 325.401 213.94C325.95 213.909 326.451 213.366 326.436 212.636Z" fill="white"/>
<path d="M336.553 227.115C336.119 227.48 335.719 227.9 335.307 228.303C335.384 228.228 335.461 228.153 335.538 228.078V228.078C335.484 228.131 335.513 228.224 335.588 228.236C335.983 228.3 336.379 228.364 336.774 228.429C336.786 228.431 336.794 228.416 336.786 228.407V228.407C336.777 228.397 336.762 228.404 336.763 228.417C336.791 228.687 336.818 228.957 336.846 229.227C336.877 229.528 337.327 229.589 337.406 229.297C337.409 229.284 337.413 229.271 337.416 229.258C337.374 229.384 337.331 229.51 337.289 229.636C337.448 229.281 337.571 228.917 337.671 228.529C337.774 228.129 337.877 227.726 337.865 227.299C337.855 226.965 337.748 226.685 337.539 226.481C337.347 226.294 337.059 226.18 336.819 226.295C336.632 226.384 336.465 226.48 336.303 226.624C336.127 226.78 335.963 226.957 335.795 227.127C335.701 227.223 335.596 227.313 335.511 227.42C335.432 227.519 335.375 227.651 335.288 227.737C335.373 227.654 335.459 227.57 335.544 227.487C335.333 227.682 335.163 227.871 334.993 228.11C334.93 228.197 334.867 228.285 334.808 228.377C334.638 228.594 334.519 228.85 334.454 229.144C334.388 229.452 334.388 229.76 334.454 230.068C334.568 230.593 334.861 230.986 335.252 231.194C335.654 231.408 336.097 231.389 336.48 231.107C336.866 230.822 337.211 230.197 337.163 229.606V229.606C337.161 229.576 337.118 229.571 337.109 229.6C337.078 229.694 337.047 229.788 337.016 229.882C336.984 229.98 337.114 230.043 337.17 229.956C337.415 229.574 337.653 229.183 337.87 228.775C338.097 228.347 338.018 227.651 337.719 227.305C337.416 226.954 336.916 226.809 336.553 227.115Z" fill="white"/>
<path d="M347.597 204.532C347.592 204.503 347.588 204.473 347.585 204.443C347.597 204.554 347.609 204.666 347.621 204.777C347.615 204.696 347.614 204.618 347.622 204.537C347.611 204.644 347.599 204.751 347.588 204.858C347.595 204.801 347.607 204.746 347.623 204.692C347.591 204.786 347.56 204.879 347.529 204.972C347.552 204.905 347.584 204.849 347.614 204.788C347.626 204.762 347.639 204.733 347.649 204.706C347.706 204.563 347.494 204.931 347.572 204.83C347.601 204.793 347.631 204.757 347.66 204.721C347.725 204.642 347.477 204.879 347.557 204.822C347.66 204.748 347.781 204.611 347.832 204.474C347.975 204.096 347.95 203.698 347.721 203.385C347.47 203.042 346.951 203.006 346.613 203.127C346.117 203.305 345.754 203.917 345.647 204.533C345.572 204.968 345.634 205.456 345.907 205.772C346.105 206.001 346.348 206.145 346.622 206.145C346.881 206.145 347.153 206.003 347.336 205.772C347.61 205.428 347.662 204.992 347.597 204.532Z" fill="white"/>
</svg>
