<svg width="217" height="221" viewBox="0 0 200 221" fill="none" xmlns="http://www.w3.org/2000/svg">
<path d="M29.821 144.696C38.9791 173.066 49.2297 195.151 52.7164 194.026C56.2031 192.9 51.6055 168.99 42.4474 140.62C33.2893 112.25 23.0387 90.1645 19.552 91.2901C16.0653 92.4156 20.6629 116.326 29.821 144.696Z" fill="#E6E6E6"/>
<path d="M150.602 164.202C150.458 160.792 149.889 157.526 148.905 154.476C144.731 141.549 133.099 132.539 114.885 133.302C92.3733 134.245 68.3298 149.757 69.0778 167.617C69.1539 169.432 69.4821 171.197 70.0348 172.909C74.9251 188.059 97.369 198.829 117.595 197.981C140.108 197.039 151.35 182.063 150.602 164.202ZM117.072 185.477C100.498 186.171 84.5808 177.224 81.9468 169.065C81.7302 168.394 81.6115 167.749 81.5835 167.093C81.2205 158.433 97.5594 146.554 115.41 145.806C123.307 145.475 133.462 147.378 136.995 158.32C137.631 160.29 138.002 162.445 138.097 164.726C138.625 177.331 130.962 184.895 117.072 185.477Z" fill="#AF9F72"/>
<path opacity="0.3" d="M84.5882 173.481C83.3298 172.024 82.4205 170.533 81.9468 169.065C81.7302 168.394 81.6115 167.749 81.5835 167.093C81.2205 158.433 97.5594 146.554 115.41 145.806C123.307 145.475 133.462 147.378 136.995 158.32C137.48 159.824 137.81 161.44 137.981 163.135C141.314 160.408 145.827 159.024 150.106 159.466C149.819 157.751 149.424 156.081 148.905 154.476C144.731 141.549 133.099 132.539 114.885 133.302C92.3733 134.245 68.3298 149.757 69.0778 167.617C69.1539 169.432 69.4821 171.197 70.0348 172.909C71.1681 176.42 73.2539 179.691 76.0265 182.642C77.3957 178.466 80.6334 175.127 84.5882 173.481Z" fill="#AF9F72"/>
<path d="M44.0241 167.099L28.0103 117.492C26.0491 111.416 29.2528 104.879 35.256 102.708L137.866 65.5804L163.732 145.707L58.4676 174.879C52.3455 176.575 45.9755 173.144 44.0241 167.099Z" fill="#D5C390"/>
<path opacity="0.3" d="M156.185 147.797L163.732 145.706L137.866 65.5795L130.504 68.2428L156.185 147.797Z" fill="#D5C390"/>
<path opacity="0.3" d="M72.9393 168.87C53.8619 163.092 39.9894 148.159 37.5475 127.947C36.1452 116.335 39.6655 106.693 46.1497 98.7657L35.256 102.708C29.253 104.88 26.0494 111.417 28.0102 117.492L44.0241 167.099C45.9754 173.144 52.3455 176.575 58.4663 174.878L76.6805 169.831C75.4213 169.55 74.1694 169.243 72.9393 168.87Z" fill="#D5C390"/>
<path opacity="0.3" d="M132.06 81.7057L129.484 73.7262L47.5968 103.398C44.1077 104.66 42.2682 108.415 43.4079 111.945L45.0698 112.009L132.06 81.7057Z" fill="white"/>
<path d="M159.364 146.354L133.944 67.6085C133.205 65.3198 134.461 62.865 136.75 62.1262C139.039 61.3874 141.494 62.644 142.232 64.9327L167.652 143.678C168.391 145.967 167.135 148.422 164.846 149.161C162.557 149.9 160.102 148.643 159.364 146.354Z" fill="#AF9F72"/>
<path opacity="0.3" d="M167.781 145.751C165.292 147.154 161.664 146.687 160.528 143.167L134.792 63.4444C133.841 64.5565 133.461 66.1135 133.944 67.6086L159.364 146.354C160.102 148.643 162.557 149.9 164.846 149.161C166.441 148.646 167.514 147.294 167.781 145.751Z" fill="#AF9F72"/>
</svg>