<svg width="500" height="299" viewBox="0 0 500 299" fill="none" xmlns="http://www.w3.org/2000/svg">
<path d="M382.326 116.537C375.636 87.2871 361.509 60.0612 340.061 38.9222C321.159 20.2933 297.089 6.9874 270.931 2.06028C244.173 -2.98043 217.041 1.48896 192.344 12.6198C165.091 24.903 141.236 45.1356 125.157 70.3755C108.845 95.9799 101.208 126.501 104.957 156.74C108.763 187.438 123.623 217.37 143.242 241.019C162.11 263.76 187.518 282 216.548 288.888C230.926 292.3 245.837 292.785 260.409 290.354C275.189 287.887 289.183 282.158 302.491 275.412C327.082 262.946 349.576 245.454 365.404 222.682C382.237 198.462 389.52 169.07 387.119 139.756C386.806 135.929 386.338 132.113 385.75 128.319C385.098 124.116 383.339 120.484 381.52 116.66C381.354 116.311 380.817 116.496 380.817 116.85C380.815 121.009 380.558 125.002 381.177 129.122C381.771 133.07 382.194 137.045 382.456 141.029C382.957 148.626 382.85 156.264 382.054 163.837C380.617 177.516 376.757 190.979 370.689 203.323C358.899 227.305 339.555 246.611 317.192 260.912C293.48 276.075 266.141 287.711 237.529 286.467C209.048 285.228 182.481 271.886 161.766 252.759C139.818 232.494 123.728 205.962 114.915 177.481C106.066 148.886 107.924 118.05 119.724 90.5423C131.106 64.0059 151.088 41.1569 175.467 25.7651C198.389 11.2932 225.672 2.32319 252.952 3.36585C278.265 4.33356 302.942 13.5285 323.386 28.353C346.366 45.0164 363.487 68.8671 373.474 95.3274C376.162 102.449 378.332 109.75 380.063 117.162C380.408 118.631 382.662 118.009 382.326 116.537Z" fill="white"/>
<path d="M382.162 129.918C379.502 135.591 378.003 142.07 375.946 147.998C373.762 154.295 371.285 160.48 368.591 166.576C363.153 178.883 356.131 190.215 349.684 201.984C349.444 202.422 350.064 202.963 350.407 202.542C358.947 192.067 365.517 179.747 371.067 167.48C373.71 161.638 376.017 155.642 378.094 149.577C380.186 143.466 382.661 136.66 383.177 130.194C383.219 129.666 382.389 129.435 382.162 129.918Z" fill="white"/>
<path d="M375.695 133.935C374.24 136.273 373.396 139.033 372.264 141.548C371.042 144.264 369.777 146.963 368.478 149.643C365.937 154.885 363.213 160.037 360.373 165.123C354.634 175.402 348.302 185.365 342.78 195.762C342.511 196.27 343.214 196.66 343.54 196.206C350.5 186.506 356.743 176.204 362.56 165.785C365.399 160.7 368.121 155.55 370.656 150.307C371.878 147.779 373.04 145.227 374.14 142.644C375.243 140.054 376.661 137.332 377.188 134.563C377.358 133.675 376.204 133.117 375.695 133.935Z" fill="white"/>
<path d="M362.738 143.539C361.278 144.818 360.508 146.753 359.592 148.444C358.527 150.413 357.488 152.396 356.46 154.384C354.438 158.294 352.454 162.224 350.448 166.143C346.371 174.11 342.038 181.981 337.058 189.424C336.653 190.029 337.607 190.785 338.078 190.211C343.728 183.321 348.095 175.616 352.194 167.733C354.302 163.68 356.308 159.576 358.366 155.498C359.375 153.499 360.394 151.505 361.44 149.525C362.341 147.819 363.576 146.142 363.928 144.232C364.057 143.529 363.291 143.055 362.738 143.539Z" fill="white"/>
<path d="M351.51 151.975C348.384 156.627 346.36 162.275 343.83 167.279C341.208 172.465 338.39 177.537 335.558 182.611C329.865 192.813 323.628 202.662 317.155 212.382C316.882 212.792 317.528 213.305 317.845 212.915C325.255 203.817 331.833 194.017 337.774 183.906C340.714 178.901 343.39 173.726 345.971 168.529C348.467 163.502 351.606 158.05 352.888 152.556C353.085 151.709 351.986 151.266 351.51 151.975Z" fill="white"/>
<path d="M340.702 159.751C336.854 164.823 334.055 171.048 330.883 176.573C327.6 182.293 324.194 187.939 320.815 193.602C314.055 204.928 306.731 215.966 300.574 227.638C300.33 228.1 300.963 228.448 301.261 228.04C309.164 217.237 316.077 205.685 323.03 194.258C326.457 188.628 329.741 182.907 332.96 177.155C335.978 171.761 339.652 166.008 341.506 160.09C341.667 159.576 340.982 159.382 340.702 159.751Z" fill="white"/>
<path d="M328.272 166.696C325.92 169.764 324.54 173.875 322.774 177.316C320.921 180.923 318.959 184.472 316.981 188.013C313.038 195.072 308.766 201.941 304.582 208.858C304.194 209.499 305.131 209.99 305.558 209.429C310.585 202.839 314.991 195.827 319.04 188.602C321.024 185.063 322.85 181.435 324.6 177.774C326.192 174.442 328.406 170.672 328.999 167.003C329.073 166.546 328.55 166.334 328.272 166.696Z" fill="white"/>
<path d="M316.444 174.975C312.176 180.612 309.03 187.324 305.303 193.345C301.443 199.58 297.374 205.678 293.473 211.886C289.647 217.976 285.833 224.075 282.21 230.288C278.65 236.396 274.908 242.651 272.359 249.264C272.289 249.445 272.569 249.55 272.665 249.393C276.432 243.167 279.812 236.728 283.704 230.568C287.644 224.333 291.793 218.239 295.908 212.119C299.897 206.184 303.8 200.162 307.521 194.054C311.081 188.212 315.359 181.942 317.286 175.33C317.443 174.792 316.74 174.583 316.444 174.975Z" fill="white"/>
<path d="M302.848 183.685C299.818 184.951 297.943 188.983 296.256 191.649C292.792 197.125 289.72 202.871 286.404 208.44C278.908 221.025 271.118 233.345 263.12 245.612C262.839 246.044 263.507 246.577 263.844 246.17C272.835 235.319 280.65 223.248 287.9 211.185C291.318 205.498 294.647 199.765 297.913 193.992C299.736 190.769 302.46 187.873 303.518 184.355C303.626 183.992 303.24 183.522 302.848 183.685Z" fill="white"/>
<path d="M294.889 186.839C290.557 189.726 287.199 195.075 284.11 199.208C280.299 204.306 276.726 209.58 273.287 214.936C266.549 225.43 260.059 236.352 254.704 247.626C254.378 248.311 255.279 248.836 255.716 248.218C262.76 238.272 268.709 227.511 275.236 217.224C278.478 212.113 281.838 207.071 285.405 202.18C287.201 199.716 289.054 197.293 290.946 194.903C292.691 192.699 294.873 190.638 296.207 188.157C296.638 187.356 295.731 186.278 294.889 186.839Z" fill="white"/>
<path d="M279.563 195.406C274.959 199.958 271.528 205.767 268.083 211.206C264.567 216.758 261.277 222.448 257.749 227.992C257.003 229.164 258.822 230.19 259.593 229.071C263.236 223.789 266.583 218.337 269.959 212.884C273.428 207.281 277.412 202.011 280.846 196.396C281.333 195.599 280.22 194.757 279.563 195.406Z" fill="white"/>
<path d="M265.501 204.128C261.682 205.773 258.874 210.024 256.446 213.231C253.441 217.2 250.784 221.392 248.214 225.652C243.069 234.18 238.099 242.82 232.454 251.034C232.009 251.682 233.009 252.444 233.54 251.872C240.099 244.802 244.735 236.314 249.632 228.075C252.099 223.924 254.616 219.789 257.333 215.797C259.919 211.999 263.793 208.529 265.759 204.386C265.844 204.207 265.674 204.054 265.501 204.128Z" fill="white"/>
<path d="M250.773 210.245C246.895 213.337 244.52 218.333 242.036 222.531C239.282 227.188 236.567 231.84 233.406 236.239C232.498 237.502 234.555 238.639 235.467 237.444C238.747 233.146 241.713 228.603 244.492 223.967C247.006 219.775 250.135 215.385 251.437 210.632C251.551 210.218 251.066 210.011 250.773 210.245Z" fill="white"/>
<path d="M234.155 219.248C229.022 224.813 225.86 232.317 222.238 238.895C218.276 246.091 214.207 253.228 209.636 260.059C209.23 260.667 210.168 261.4 210.656 260.845C216.046 254.721 220.288 247.736 224.185 240.595C227.887 233.81 232.19 226.917 234.821 219.634C234.957 219.259 234.417 218.964 234.155 219.248Z" fill="white"/>
<path d="M219.448 226.702C215.004 230.478 212.356 236.349 209.559 241.362C206.594 246.677 203.705 252.039 200.648 257.302C200.236 258.012 201.276 258.59 201.733 257.936C205.232 252.937 208.343 247.713 211.526 242.512C214.55 237.571 218.421 232.743 220.498 227.314C220.743 226.672 219.875 226.339 219.448 226.702Z" fill="white"/>
<path d="M207.856 230.558C203.882 234.223 201.567 239.349 199.089 244.07C196.452 249.096 194.031 254.24 191.772 259.447C191.577 259.896 192.16 260.503 192.528 260.031C195.855 255.764 198.33 250.799 200.783 246.003C203.334 241.016 206.053 236.12 208.612 231.141C208.862 230.656 208.265 230.18 207.856 230.558Z" fill="white"/>
<path d="M195.6 235.723C192.704 238.532 190.904 242.274 189.129 245.839C187.22 249.671 185.285 253.505 183.483 257.386C183.274 257.836 183.817 258.342 184.206 257.944C189.95 252.071 191.039 242.766 196.459 236.581C196.971 235.997 196.167 235.172 195.6 235.723Z" fill="white"/>
<path d="M183.483 240.994C180.135 245.915 178.152 251.568 175.228 256.722C175.011 257.103 175.544 257.552 175.852 257.204C179.764 252.796 181.683 246.661 184.279 241.459C184.545 240.926 183.817 240.503 183.483 240.994Z" fill="white"/>
<path d="M382.591 146.123C381.99 159.687 375.77 172.383 368.718 183.718C365.186 189.397 361.279 194.824 357.275 200.176C353.483 205.243 349.214 210.233 346.172 215.801C345.89 216.317 346.564 216.863 346.994 216.436C351.552 211.908 355.413 206.473 359.22 201.313C363.46 195.566 367.541 189.682 371.19 183.539C377.954 172.152 383.018 159.56 382.675 146.124C382.673 146.07 382.593 146.07 382.591 146.123Z" fill="white"/>
<path d="M379.593 174.356C375.498 182.763 371.407 191.112 366.306 198.969C361.043 207.077 354.388 213.76 348.213 221.115C347.736 221.684 348.341 222.64 349.051 222.2C357.103 217.219 363.357 209.121 368.484 201.306C373.814 193.182 378.034 184.095 380.167 174.598C380.241 174.268 379.756 174.021 379.593 174.356Z" fill="white"/>
<path d="M367.01 213.602C357.709 222.738 346.449 229.163 335.257 235.664C334.609 236.04 335.178 236.916 335.828 236.64C347.295 231.766 361.857 226.021 367.865 214.262C368.141 213.723 367.465 213.154 367.01 213.602Z" fill="white"/>
<path d="M307.744 253.112C311.376 253.991 315.489 252.51 318.891 251.281C322.657 249.921 326.328 248.212 329.888 246.388C337.502 242.489 345.547 238.211 352.34 232.995C352.627 232.775 352.482 232.189 352.066 232.344C344.526 235.154 337.894 240.388 330.819 244.178C326.965 246.242 323.032 248.086 318.863 249.422C315.219 250.588 311.122 250.862 307.66 252.462C307.378 252.592 307.462 253.044 307.744 253.112Z" fill="white"/>
<path d="M293.99 264.71C302.615 264.155 311.743 260.446 319.436 256.675C323.644 254.613 327.773 252.392 331.839 250.063C333.839 248.918 335.833 247.763 337.832 246.616C339.774 245.502 342.096 244.508 343.59 242.81C344.012 242.33 343.593 241.703 342.999 241.795C339.082 242.404 334.989 245.693 331.561 247.615C327.625 249.822 323.707 252.067 319.709 254.16C315.511 256.358 311.306 258.647 306.9 260.401C302.663 262.088 298.326 263.167 293.945 264.381C293.768 264.43 293.796 264.723 293.99 264.71Z" fill="white"/>
<path d="M274.521 272.44C281.029 274.421 289.048 272.799 295.579 271.477C299.274 270.729 302.927 269.781 306.536 268.693C309.618 267.763 313.234 266.954 315.723 264.809C315.979 264.588 315.765 264.169 315.456 264.165C312.222 264.126 309.011 265.67 305.958 266.593C302.52 267.631 299.042 268.54 295.526 269.27C291.957 270.011 288.338 270.576 284.711 270.938C281.304 271.278 277.879 271.159 274.521 271.874C274.226 271.937 274.258 272.36 274.521 272.44Z" fill="white"/>
<path d="M261.344 278.555C264.61 281.011 270.176 281.126 274.106 281.182C277.87 281.236 283.73 281.368 286.728 278.747C287.078 278.442 286.777 277.912 286.373 277.889C284.599 277.791 282.825 278.425 281.08 278.723C278.628 279.142 276.134 279.281 273.649 279.244C269.65 279.184 265.392 277.864 261.44 278.204C261.245 278.22 261.194 278.441 261.344 278.555Z" fill="white"/>
<path d="M249.565 282.65C253.086 286.127 258.475 285.958 263 285.253C263.717 285.141 263.556 283.909 262.828 283.977C258.304 284.4 254.061 283.492 249.707 282.404C249.568 282.37 249.459 282.545 249.565 282.65Z" fill="white"/>
<path d="M153.491 40.4988C132.956 60.6104 124.34 91.1046 123.094 119.083C123.064 119.76 124.099 119.752 124.141 119.083C125.038 104.932 127.645 90.8121 132.58 77.4925C137.589 63.9713 145.201 52.2055 153.59 40.5749C153.633 40.5158 153.541 40.4505 153.491 40.4988Z" fill="white"/>
<path d="M164.702 32.974C155.197 38.7649 151.534 51.838 149.118 61.9825C146.35 73.6006 145.188 85.5209 144.077 97.3889C144.027 97.9239 144.94 98.0545 145.023 97.5173C146.761 86.3097 148.093 75.0488 150.658 63.9843C153.224 52.9239 157.009 41.655 164.829 33.1387C164.907 33.0536 164.807 32.9099 164.702 32.974Z" fill="white"/>
<path d="M181.825 19.115C178.467 20.4422 176.512 23.6701 174.859 26.7214C172.564 30.9585 170.919 35.5501 169.499 40.1427C166.753 49.0224 165.207 58.1997 163.344 67.2873C163.166 68.1522 164.426 68.5168 164.677 67.6547C167.059 59.4581 168.719 51.0742 171.081 42.8675C172.385 38.3345 173.85 33.8077 175.902 29.5513C177.603 26.0224 179.901 23.0131 182.313 19.9555C182.583 19.6142 182.35 18.9071 181.825 19.115Z" fill="white"/>
<path d="M202.738 10.0399C200.327 10.5805 198.53 13.1071 197.12 14.9761C195.212 17.5032 193.635 20.2633 192.271 23.117C189.239 29.461 187.278 36.3184 185.664 43.1424C182.554 56.2916 181.413 69.7508 179.334 83.0733C179.257 83.5668 179.979 83.794 180.101 83.2851C183.089 70.8407 184.714 58.0963 187.67 45.6366C189.283 38.8399 191.193 32.0898 194.018 25.6862C195.232 22.9341 196.596 20.2456 198.262 17.7361C199.762 15.4753 202.371 13.4201 203.423 10.9315C203.628 10.4505 203.295 9.91493 202.738 10.0399Z" fill="white"/>
<path d="M217.86 5.52677C214.331 5.87546 211.876 11.555 210.599 14.285C208.111 19.6079 206.462 25.296 205.002 30.9733C202.236 41.7339 200.712 52.6961 198.72 63.6078C198.615 64.1848 199.429 64.4267 199.609 63.8526C202.692 53.9949 204.285 43.6432 206.755 33.6209C208.118 28.0906 209.666 22.574 211.769 17.2738C212.649 15.0544 213.657 12.8578 214.943 10.8406C215.93 9.29192 217.552 8.03967 218.384 6.44046C218.577 6.07018 218.348 5.47849 217.86 5.52677Z" fill="white"/>
<path d="M233.45 2.63664C226.981 11.6737 225.561 23.6792 223.971 34.3875C223.851 35.1945 224.97 35.5529 225.223 34.7328C228.404 24.4055 228.897 12.7891 235.186 3.65154C235.925 2.57707 234.195 1.59681 233.45 2.63664Z" fill="white"/>
<path d="M246.286 2.60209C248.566 10.4789 250.191 18.4034 251.086 26.559C251.951 34.437 251.96 42.3575 252.241 50.2673C252.278 51.2906 253.67 51.2333 253.791 50.2673C255.755 34.5449 253.667 16.9211 247.78 2.18975C247.42 1.28849 246.001 1.61906 246.286 2.60209Z" fill="white"/>
<path d="M258.801 2.51232C268.368 21.9408 275.58 42.491 274.104 64.4779C274.058 65.1559 275.16 65.3116 275.297 64.6392C277.504 53.8144 276.235 42.7249 273.226 32.1665C270.202 21.5558 265.7 11.2257 259.199 2.28008C259.026 2.04156 258.668 2.24256 258.801 2.51232Z" fill="white"/>
<path d="M272.651 4.05015C275.108 10.5311 278.358 16.6894 280.823 23.1851C283.381 29.9255 285.512 36.8227 287.24 43.8215C290.668 57.7085 292.544 71.9191 293.573 86.1723C293.628 86.9247 294.696 86.9287 294.746 86.1723C295.694 71.8413 293.67 57.4035 290.116 43.5291C288.288 36.3894 286.046 29.348 283.34 22.4911C280.797 16.0477 277.962 9.12158 273.722 3.59816C273.36 3.12623 272.391 3.36583 272.651 4.05015Z" fill="white"/>
<path d="M291.478 11.3665C295.6 14.5507 298.947 17.8417 301.538 22.4298C304.39 27.4807 306.209 33.0638 307.585 38.6769C310.525 50.6716 311.415 62.9457 312.298 75.2231C312.686 80.6216 312.761 86.2489 313.728 91.5804C313.869 92.3584 314.93 92.0762 315.003 91.4078C316.245 80.0577 315.238 68.0273 313.913 56.7385C312.494 44.6507 310.256 31.9586 304.088 21.2798C301.402 16.6292 297.431 11.5539 292.14 9.7968C291.134 9.46344 290.773 10.8213 291.478 11.3665Z" fill="white"/>
<path d="M313.364 21.9118C314.189 24.3169 316.509 26.4687 317.983 28.5007C319.935 31.1897 321.694 34.0161 323.324 36.9096C327.099 43.6097 330.351 50.6426 333.079 57.8294C335.716 64.7737 337.975 71.8964 339.599 79.1473C340.333 82.419 340.969 85.7299 341.437 89.0504C341.835 91.8769 341.775 94.9253 342.413 97.6944C342.675 98.8331 344.326 98.7479 344.634 97.6944C345.431 94.9702 345.071 91.6253 344.804 88.8261C344.473 85.367 343.903 81.9494 343.147 78.559C341.439 70.9054 339.029 63.4187 336.084 56.1546C333.186 49.0065 329.867 42.023 325.742 35.4961C323.909 32.5964 321.939 29.7813 319.787 27.1093C318.205 25.1455 316.169 22.3627 313.673 21.6018C313.496 21.5489 313.302 21.7307 313.364 21.9118Z" fill="white"/>
<path d="M337.124 39.2914C338.262 41.6868 340.329 43.7948 341.717 46.0897C343.225 48.5845 344.565 51.181 345.759 53.8405C348.361 59.6382 350.209 65.8613 351.624 72.0486C354.389 84.1403 355.33 97.005 354.022 109.362C353.918 110.345 355.551 110.562 355.75 109.596C358.399 96.7676 357.42 83.5542 354.173 70.8968C352.57 64.6431 350.307 58.6409 347.442 52.8563C346.036 50.0168 344.463 47.2557 342.689 44.6291C341.338 42.6295 339.79 40.0183 337.783 38.6326C337.351 38.3333 336.937 38.8972 337.124 39.2914Z" fill="white"/>
<path d="M119.043 88.3292C116.584 91.1954 115.7 95.206 115.052 98.8405C114.205 103.592 113.955 108.437 113.915 113.256C113.833 122.954 114.849 132.59 115.113 142.274C115.123 142.624 115.651 142.625 115.658 142.274C115.846 133.153 115.02 124.042 114.999 114.922C114.987 110.023 115.154 105.087 115.915 100.239C116.561 96.1259 117.938 92.3715 119.253 88.4519C119.292 88.3349 119.124 88.2344 119.043 88.3292Z" fill="white"/>
<path d="M147.263 45.6132C144.452 49.8589 143.012 54.7508 141.722 59.6387C140.24 65.2547 139.125 70.9786 138.28 76.7235C136.703 87.454 135.35 98.5083 135.166 109.362C135.158 109.826 135.888 109.942 135.989 109.473C138.242 98.9296 138.737 87.9549 140.37 77.2994C141.205 71.8447 142.137 66.4053 143.45 61.0426C144.705 55.9173 146.514 50.9629 147.875 45.871C147.976 45.4951 147.47 45.3009 147.263 45.6132Z" fill="white"/>
<path d="M166.549 29.8102C164.662 33.3902 163.735 37.4519 162.707 41.3449C161.58 45.607 160.565 49.8997 159.753 54.2328C158.188 62.5907 157.106 70.9854 156.233 79.4409C156.199 79.7669 156.753 79.8447 156.809 79.5187C158.232 71.2319 159.745 62.9394 161.529 54.7218C162.426 50.5864 163.324 46.4492 164.368 42.3478C165.393 38.3162 166.871 34.3273 167.506 30.2129C167.589 29.6728 166.849 29.24 166.549 29.8102Z" fill="white"/>
<path d="M188.51 17.7969C185.392 19.1246 183.709 22.5371 182.339 25.5078C180.482 29.5326 179.235 33.8463 178.136 38.1295C175.987 46.5032 174.597 55.066 173.207 63.5913C173.095 64.2796 174.013 64.5471 174.257 63.881C177.032 56.2932 178.069 48.0206 179.98 40.187C180.997 36.018 182.156 31.8587 183.763 27.8743C185.151 24.4334 187.116 21.4303 188.997 18.2841C189.197 17.9485 188.814 17.6674 188.51 17.7969Z" fill="white"/>
<path d="M208.637 8.87855C204.894 12.282 203.141 17.4862 201.589 22.1788C199.773 27.6681 198.683 33.3432 197.222 38.9285C197.071 39.5078 197.918 39.7293 198.111 39.1733C199.859 34.1337 201.302 29.0004 202.866 23.9024C204.447 18.7498 206.697 14.0629 209.197 9.31016C209.386 8.95011 208.939 8.60368 208.637 8.87855Z" fill="white"/>
<path d="M227.32 3.44197C224.563 4.62775 222.935 7.88695 221.752 10.4635C220.121 14.0152 219.041 17.7968 218.13 21.5882C216.337 29.0481 215.492 36.712 213.576 44.139C213.423 44.7341 214.343 45.1805 214.61 44.5745C217.447 38.1141 218.263 30.8313 219.747 23.9875C220.568 20.1985 221.505 16.3964 222.941 12.7868C224.227 9.552 226.278 7.08904 228.036 4.15753C228.331 3.66686 227.766 3.25002 227.32 3.44197Z" fill="white"/>
<path d="M240.652 2.39871C240.401 16.7127 239.912 30.7882 238.43 45.0346C238.385 45.4713 239.05 45.5252 239.171 45.1345C243.385 31.4713 241.73 16.4696 241.448 2.39871C241.437 1.88703 240.661 1.8859 240.652 2.39871Z" fill="white"/>
<path d="M251.403 2.43222C251.967 6.55746 253.684 10.4732 254.934 14.4218C256.198 18.4108 257.282 22.4628 258.225 26.5392C260.226 35.1804 260.452 43.7403 261.177 52.5161C261.248 53.3839 262.553 53.6848 262.781 52.733C264.834 44.1645 263.412 34.6278 261.349 26.199C260.27 21.7932 258.79 17.5146 257.133 13.2951C255.645 9.5032 254.167 5.52959 251.613 2.30959C251.525 2.19828 251.389 2.32659 251.403 2.43222Z" fill="white"/>
<path d="M265.21 3.45275C268.282 9.36802 271.582 15.1572 274.294 21.2559C277.05 27.4546 278.843 33.9861 281.482 40.2108C281.799 40.9582 283.061 40.5748 283.004 39.7985C282.522 33.279 279.626 26.7953 276.875 20.9413C273.905 14.62 270.529 8.38329 266.259 2.83999C265.793 2.23575 264.839 2.73833 265.21 3.45275Z" fill="white"/>
<path d="M281.88 7.06743C283.933 10.8485 286.394 14.3508 288.274 18.2472C290.479 22.8171 292.368 27.5818 294.008 32.3823C295.563 36.9312 296.882 41.555 298.068 46.213C299.131 50.3939 299.87 54.7224 301.29 58.7983C301.686 59.9341 303.593 59.8449 303.511 58.4978C303.242 54.0807 302.079 49.6828 301.018 45.3997C299.763 40.3289 298.315 35.2979 296.597 30.364C294.973 25.6975 293.11 21.1509 290.672 16.8462C288.581 13.156 285.979 8.96199 282.367 6.58077C282.056 6.37519 281.718 6.76985 281.88 7.06743Z" fill="white"/>
<path d="M304.634 15.6002C313.768 22.482 318.266 35.0185 321.769 45.4549C325.324 56.0445 328.18 67.1374 330.039 78.1603C330.188 79.0474 331.637 78.8367 331.602 77.9485C331.139 66.0464 327.625 54.1824 323.488 43.0867C321.235 37.0419 318.672 31.0364 315.213 25.5737C312.642 21.5155 309.474 17.0671 304.994 14.9852C304.572 14.7892 304.27 15.3253 304.634 15.6002Z" fill="white"/>
<path d="M327.784 30.13C329.31 33.8321 331.343 37.3083 333.016 40.9468C335.273 45.8546 337.334 50.8658 339.309 55.8929C341.182 60.661 342.83 65.5109 344.08 70.4811C345.155 74.7546 345.59 79.1053 346.517 83.3878C346.685 84.1624 347.803 84.0875 348.011 83.3878C349.192 79.4256 348.215 74.6904 347.329 70.7662C346.121 65.4177 344.184 60.1856 342.108 55.1211C340.119 50.2689 337.809 45.5366 335.202 40.9888C333.04 37.2191 331.017 33.2069 328.134 29.9261C328.002 29.7756 327.704 29.9352 327.784 30.13Z" fill="white"/>
<path d="M352.027 54.6123C352.551 55.2563 352.98 56.8742 353.341 57.6892C354.093 59.3872 354.76 61.1062 355.355 62.8662C356.944 67.5667 358.284 72.3558 359.519 77.1603C361.639 85.4079 362.983 93.8759 365.341 102.053C365.552 102.786 366.555 102.591 366.616 101.88C366.927 98.2669 366.083 94.462 365.321 90.9478C364.157 85.5828 362.794 80.2531 361.315 74.9665C359.946 70.0694 358.493 65.1741 356.564 60.4639C355.581 58.0651 354.683 55.2841 352.211 54.2976C352.015 54.2198 351.923 54.4851 352.027 54.6123Z" fill="white"/>
<path d="M496.685 11.3267C485.572 -9.51074 401.054 24.0938 345.851 46.1517L353.785 56.6266C372.152 50.2678 432.807 33.7657 437.98 41.4557C443.155 49.1451 367.423 122.386 273.216 175.207C195.013 219.052 72.8706 250.602 67.2075 243.298C61.5472 236.001 94.7093 207.46 116.791 190.884L112.155 176.732C65.3862 209.144 -7.32061 265.752 3.00727 290.264C13.3261 314.776 165.655 257.595 280.14 195.984C448.354 105.457 507.795 32.167 496.685 11.3267Z" fill="#222323"/>
<path d="M498.421 10.3119C495.534 5.09967 489.415 3.45619 483.883 2.94564C475.171 2.14149 466.192 3.73896 457.695 5.51764C433.066 10.6731 409.164 19.5 385.684 28.3888C372.167 33.5062 358.738 38.8507 345.317 44.2128C344.258 44.6359 343.248 46.0221 344.115 47.1665C346.76 50.6579 349.405 54.1494 352.05 57.6415C352.566 58.3241 353.417 58.8772 354.32 58.5654C370.993 52.8171 388.294 48.375 405.558 44.821C413.553 43.1752 421.793 41.4966 429.99 41.4653C432.077 41.4574 434.315 41.6283 436.03 42.3501C436.742 42.6494 435.891 42.5108 436.208 42.1644C435.884 42.5188 436.288 42.5756 436.02 43.2974C434.873 46.3839 431.833 50.1934 429.408 53.0965C424.716 58.7165 419.581 63.9702 414.35 69.0858C398.408 84.6776 381.229 99.0336 363.609 112.681C320.347 146.19 273.708 175.681 223.321 197.226C200.36 207.044 176.853 215.619 153.062 223.2C134.055 229.256 114.81 234.803 95.2852 238.943C89.1728 240.239 82.9986 241.466 76.7732 242.071C74.8077 242.261 72.8127 242.417 70.8369 242.313C69.8902 242.263 69.9578 242.281 69.2797 242.13C68.5216 241.96 68.713 241.795 68.8056 242.059C68.7936 242.025 68.5341 241.565 68.5818 240.922C68.684 239.544 69.5194 238.123 70.1952 236.967C72.3106 233.345 75.1598 230.154 78.0101 227.101C86.0477 218.492 95.0495 210.757 104.161 203.317C108.639 199.661 113.188 196.093 117.807 192.619C118.501 192.097 119.029 191.258 118.731 190.348C117.186 185.631 115.64 180.913 114.095 176.196C113.72 175.052 112.264 174.216 111.142 174.994C85.7149 192.63 60.7255 211.26 37.8663 232.156C27.9672 241.205 18.3094 250.75 10.3128 261.556C5.26015 268.383 -0.522242 277.162 0.0377097 286.08C0.942946 300.499 19.4361 298.58 29.5487 297.285C53.8998 294.165 77.7523 286.201 100.833 278.135C132.798 266.965 164.144 253.994 195.011 240.094C228.619 224.959 261.647 208.552 293.931 190.763C326.98 172.552 359.392 153.078 390.43 131.599C412.775 116.137 434.551 99.6492 454.583 81.2571C467.626 69.2806 480.372 56.3886 490.208 41.5789C495.178 34.0956 501.082 24.2658 499.83 14.846C499.618 13.2491 499.171 11.7441 498.421 10.3119C497.22 8.01869 493.748 10.049 494.949 12.3416C495.286 12.9856 495.849 14.9891 495.907 15.6689C496.055 17.4283 495.908 19.0292 495.655 20.3825C494.806 24.8985 492.895 29.0686 490.693 33.0626C483.346 46.393 472.736 57.934 462.015 68.6054C444.713 85.8293 425.598 101.219 405.932 115.645C378.454 135.802 349.63 154.104 320.198 171.26C288.093 189.975 255.209 207.327 221.667 223.325C190.585 238.149 158.987 251.951 126.84 264.305C101.197 274.159 75.0871 283.474 48.298 289.721C39.4814 291.777 30.4795 293.599 21.4113 293.996C16.6619 294.203 10.0282 294.338 6.37777 291.434C4.99379 290.333 4.22484 288.362 4.05788 286.08C3.78983 282.416 5.00173 278.711 6.5203 275.426C11.235 265.23 19.0902 256.503 26.8024 248.485C47.6847 226.775 71.8847 208.151 96.2091 190.496C101.819 186.425 107.475 182.417 113.17 178.467C112.185 178.066 111.201 177.665 110.216 177.265C111.762 181.983 113.307 186.7 114.852 191.417C115.16 190.66 115.468 189.904 115.776 189.147C105.752 196.686 95.9757 204.591 86.6877 213.025C79.4094 219.633 71.0073 226.895 66.2943 235.696C64.3935 239.245 63.2719 244.847 68.3541 246.039C72.4617 247.003 77.1918 246.113 81.283 245.545C98.6693 243.13 115.82 238.429 132.659 233.589C156.671 226.687 180.374 218.653 203.647 209.568C227.789 200.143 251.603 189.615 274.231 176.942C301.119 161.884 326.967 144.948 351.754 126.646C371.797 111.848 391.276 96.1776 409.538 79.2166C416.082 73.1389 422.497 66.8926 428.485 60.2623C432.105 56.2552 435.883 52.0533 438.544 47.3198C440.056 44.628 441.432 41.0507 438.227 38.9819C433.537 35.9544 425.606 37.5337 420.502 38.1896C401.038 40.6924 381.746 45.9086 362.99 51.5723C359.727 52.5576 356.473 53.5758 353.251 54.6872C354.008 54.995 354.765 55.3034 355.521 55.6112C352.877 52.1197 350.231 48.6283 347.587 45.1362C347.186 46.121 346.786 47.1052 346.385 48.0899C369.66 38.79 392.966 29.5104 416.707 21.4513C427.929 17.6418 439.257 14.0788 450.765 11.229C459.769 8.99945 469.027 7.00838 478.336 6.8011C483.805 6.67957 491.899 6.83576 494.948 12.3404C496.203 14.6058 499.676 12.5795 498.421 10.3119Z" fill="white"/>
<path d="M73.1364 213.85C64.343 220.515 56.3452 228.268 48.8801 236.398C40.9062 245.083 32.8096 254.713 28.4998 265.831C26.6768 270.533 25.4803 275.802 27.3521 280.657C27.5463 281.161 28.2505 280.968 28.1596 280.434C26.4355 270.268 32.0532 260.533 37.6817 252.538C44.706 242.561 53.2893 233.657 62.0629 225.215C65.8752 221.546 69.6762 217.934 73.3647 214.146C73.5084 213.999 73.313 213.716 73.1364 213.85Z" fill="white"/>
<path d="M47.0612 260.332C46.4899 268.475 56.9138 269.523 62.8154 269.516C76.0998 269.5 89.6266 265.513 102.265 261.821C134.47 252.415 165.681 239.431 196.593 226.49C202.567 223.989 208.497 221.368 214.409 218.725C217.563 217.315 220.81 215.479 224.108 214.436C224.645 214.266 224.415 213.416 223.874 213.588C216.276 215.991 208.916 219.073 201.514 222.041C187.459 227.674 173.547 233.648 159.451 239.184C143.596 245.411 127.619 251.372 111.4 256.593C97.7363 260.991 83.7284 265.381 69.4326 267.142C62.4957 267.996 49.0506 269.822 47.1839 260.315C47.1703 260.241 47.0658 260.264 47.0612 260.332Z" fill="white"/>
<path d="M398.329 33.0155C405.453 33.1723 412.275 31.2062 419.156 29.5076C427.176 27.5279 435.438 25.7305 443.706 25.2949C452.298 24.8423 465.684 26.8339 462.377 38.4186C459.668 47.9071 451.427 56.048 444.691 62.8435C435.889 71.7221 426.356 79.884 416.669 87.775C409.344 93.7419 401.287 99.1506 394.518 105.759C394.022 106.243 394.688 107.174 395.279 106.746C412.843 94.0048 430.151 80.21 445.398 64.7482C452.429 57.6182 460.81 49.1849 463.759 39.3147C464.689 36.2032 464.867 32.7134 463.06 29.8733C460.63 26.0559 455.806 24.6645 451.563 24.2198C442.483 23.268 433.012 25.4971 424.201 27.4416C415.646 29.3293 406.964 31.5617 398.308 32.8508C398.211 32.8656 398.238 33.0138 398.329 33.0155Z" fill="white"/>
<path d="M466.357 18.0979C470.575 19.9367 472.894 23.9921 474.804 27.9725C474.896 28.1639 475.217 28.0293 475.149 27.8271C473.657 23.452 471.141 19.3444 466.738 17.4464C466.298 17.2567 465.912 17.9036 466.357 18.0979Z" fill="white"/>
<path d="M331.036 146.773C361.595 127.123 388.156 102.06 417.859 81.21C418.185 80.9812 417.887 80.4474 417.542 80.6677C386.885 100.198 360.662 125.751 330.867 146.484C330.691 146.606 330.852 146.891 331.036 146.773Z" fill="white"/>
<path d="M362.166 137.457C377.3 125.797 392.979 114.869 408.207 103.333C423.256 91.9326 438.38 80.3638 451.651 66.8863C451.996 66.5365 451.482 66.039 451.118 66.3531C436.487 78.9889 421.565 91.2028 406.141 102.861C391.263 114.107 376.408 125.397 362.038 137.292C361.948 137.367 362.071 137.529 362.166 137.457Z" fill="white"/>
</svg>
